<svg width="50" height="50" viewBox="0 0 50 50" fill="none" xmlns="http://www.w3.org/2000/svg">
<g clip-path="url(#clip0_253_2946)">
<path d="M48.7757 4.55726C47.9599 3.74137 46.9794 3.33301 45.8331 3.33301H4.16667C3.02086 3.33301 2.04024 3.74137 1.22379 4.55726C0.40781 5.37343 0 6.35396 0 7.49986V35.8334C0 36.9796 0.40781 37.96 1.22379 38.7764C2.04024 39.5922 3.02086 39.9999 4.16667 39.9999H18.3336C18.3336 40.6594 18.1946 41.3371 17.9167 42.0311C17.6391 42.7256 17.3612 43.333 17.0834 43.8536C16.8059 44.3749 16.667 44.7563 16.667 44.9992C16.667 45.4505 16.8319 45.842 17.1618 46.171C17.4915 46.5013 17.8822 46.6668 18.3336 46.6668H31.6669C32.1183 46.6668 32.509 46.5014 32.8388 46.171C33.169 45.8421 33.3338 45.4506 33.3338 44.9992C33.3338 44.7741 33.1946 44.3962 32.9169 43.8668C32.639 43.3377 32.3612 42.7206 32.0837 42.0182C31.8059 41.315 31.667 40.6423 31.667 39.9999H45.8339C46.9795 39.9999 47.9599 39.5922 48.7758 38.7764C49.5921 37.9601 50.0001 36.9797 50.0001 35.8334V7.49986C50.0004 6.35396 49.592 5.37343 48.7757 4.55726ZM46.6666 29.1666C46.6666 29.3923 46.5843 29.5874 46.4194 29.7525C46.2543 29.9171 46.0589 29.9995 45.8331 29.9995H4.16667C3.9411 29.9995 3.74572 29.9171 3.58081 29.7525C3.41599 29.5868 3.33344 29.3923 3.33344 29.1666V7.49986C3.33344 7.27411 3.41572 7.07891 3.58081 6.914C3.74581 6.74936 3.94119 6.66663 4.16667 6.66663H45.8338C46.0592 6.66663 46.2549 6.74909 46.4194 6.914C46.5843 7.079 46.6666 7.2742 46.6666 7.49986V29.1666Z" fill="url(#paint0_linear_253_2946)"/>
</g>
<defs>
<linearGradient id="paint0_linear_253_2946" x1="50.0001" y1="3.33301" x2="26.4492" y2="58.0507" gradientUnits="userSpaceOnUse">
<stop stop-color="#33F497"/>
<stop offset="1" stop-color="#09A5B4"/>
</linearGradient>
<clipPath id="clip0_253_2946">
<rect width="50" height="50" fill="white"/>
</clipPath>
</defs>
</svg>
