<svg width="50" height="50" viewBox="0 0 50 50" fill="none" xmlns="http://www.w3.org/2000/svg">
<path d="M31.0059 17.3828H18.9941C16.5979 17.3828 14.6484 19.3322 14.6484 21.7285C14.6484 24.1248 16.5979 26.0742 18.9941 26.0742H31.0059C33.4021 26.0742 35.3516 24.1248 35.3516 21.7285C35.3516 19.3322 33.4021 17.3828 31.0059 17.3828ZM20.7848 22.2655C20.7848 23.0745 20.1289 23.7304 19.3199 23.7304C18.5109 23.7304 17.8551 23.0745 17.8551 22.2655V21.1913C17.8551 20.3823 18.5109 19.7265 19.3199 19.7265C20.1289 19.7265 20.7848 20.3823 20.7848 21.1913V22.2655ZM32.1448 22.2655C32.1448 23.0745 31.489 23.7304 30.68 23.7304C29.871 23.7304 29.2151 23.0745 29.2151 22.2655V21.1913C29.2151 20.3823 29.871 19.7265 30.68 19.7265C31.489 19.7265 32.1448 20.3823 32.1448 21.1913V22.2655Z" fill="url(#paint0_linear_253_2917)"/>
<path d="M42.6758 25.195V22.3636C42.6758 12.5711 34.7414 4.88281 25 4.88281C15.2481 4.88281 7.32422 12.5723 7.32422 22.3636V25.195C7.32422 29.7133 11.0099 33.3984 15.5276 33.3984H34.4724C38.9901 33.3984 42.6758 29.7128 42.6758 25.195ZM18.9941 29.0038C14.9825 29.0038 11.7188 25.7401 11.7188 21.7284C11.7188 17.7167 14.9824 14.453 18.9941 14.453H31.0059C35.0175 14.453 38.2812 17.7167 38.2812 21.7284C38.2812 25.7401 35.0175 29.0038 31.0059 29.0038H18.9941Z" fill="url(#paint1_linear_253_2917)"/>
<path d="M32.6172 39.2578H29.3945C27.7832 39.2578 26.4648 40.5762 26.4648 42.1875C26.4648 43.7988 27.7832 45.1172 29.3945 45.1172H32.6172C34.2285 45.1172 35.5469 43.7988 35.5469 42.1875C35.5469 40.5762 34.2285 39.2578 32.6172 39.2578Z" fill="url(#paint2_linear_253_2917)"/>
<path d="M47.0706 34.8142C47.0706 38.0698 44.2526 40.8203 40.9169 40.8203H38.3142C38.4195 41.2593 38.4769 41.7167 38.4769 42.1875C38.4769 42.7286 38.4016 43.2521 38.2637 43.75H40.9169C45.8406 43.75 50.0003 39.6579 50.0003 34.8142V31.9512C49.1482 32.5923 48.1524 33.0521 47.0706 33.2727V34.8142Z" fill="url(#paint3_linear_253_2917)"/>
<path d="M45.6053 15.7445H45.4785V7.27344C45.4785 6.46445 44.8227 5.80859 44.0137 5.80859C43.2047 5.80859 42.5488 6.46445 42.5488 7.27344V11.6043C44.5396 14.793 45.6053 18.489 45.6053 22.3639V25.1953C45.6053 27.1108 45.1189 28.9149 44.2633 30.4906H45.6053C48.0284 30.4906 49.9998 28.5192 49.9998 26.0961V20.1391C49.9998 17.7159 48.0284 15.7445 45.6053 15.7445Z" fill="url(#paint4_linear_253_2917)"/>
<path d="M4.39453 22.3639C4.39453 18.4872 5.46025 14.79 7.45088 11.601V7.27344C7.45088 6.46445 6.79502 5.80859 5.98604 5.80859C5.17705 5.80859 4.52119 6.46445 4.52119 7.27344V15.7445H4.39453C1.97139 15.7445 0 17.7159 0 20.1391V26.0961C0 28.5192 1.97139 30.4906 4.39453 30.4906H5.73652C4.88086 28.9149 4.39453 27.1109 4.39453 25.1953V22.3639Z" fill="url(#paint5_linear_253_2917)"/>
<defs>
<linearGradient id="paint0_linear_253_2917" x1="35.3516" y1="17.3828" x2="32.7526" y2="29.8487" gradientUnits="userSpaceOnUse">
<stop stop-color="#33F497"/>
<stop offset="1" stop-color="#09A5B4"/>
</linearGradient>
<linearGradient id="paint1_linear_253_2917" x1="42.6758" y1="4.88281" x2="27.9439" y2="41.6584" gradientUnits="userSpaceOnUse">
<stop stop-color="#33F497"/>
<stop offset="1" stop-color="#09A5B4"/>
</linearGradient>
<linearGradient id="paint2_linear_253_2917" x1="35.5469" y1="39.2578" x2="32.9988" y2="47.2107" gradientUnits="userSpaceOnUse">
<stop stop-color="#33F497"/>
<stop offset="1" stop-color="#09A5B4"/>
</linearGradient>
<linearGradient id="paint3_linear_253_2917" x1="50.0003" y1="31.9512" x2="42.9433" y2="46.0863" gradientUnits="userSpaceOnUse">
<stop stop-color="#33F497"/>
<stop offset="1" stop-color="#09A5B4"/>
</linearGradient>
<linearGradient id="paint4_linear_253_2917" x1="49.9998" y1="5.80859" x2="33.6038" y2="15.7752" gradientUnits="userSpaceOnUse">
<stop stop-color="#33F497"/>
<stop offset="1" stop-color="#09A5B4"/>
</linearGradient>
<linearGradient id="paint5_linear_253_2917" x1="7.45088" y1="5.80859" x2="-8.94502" y2="15.775" gradientUnits="userSpaceOnUse">
<stop stop-color="#33F497"/>
<stop offset="1" stop-color="#09A5B4"/>
</linearGradient>
</defs>
</svg>
