<svg width="50" height="50" viewBox="0 0 50 50" fill="none" xmlns="http://www.w3.org/2000/svg">
<g clip-path="url(#clip0_253_2967)">
<path d="M26.4678 0C23.2362 0 20.5107 2.72548 20.5107 5.95702C20.5107 9.18856 23.2362 11.914 26.4678 11.914C29.6993 11.914 32.3271 9.18856 32.3271 5.95702C32.3271 2.72548 29.6993 0 26.4678 0Z" fill="url(#paint0_linear_253_2967)"/>
<path d="M32.9709 11.9141C31.361 13.6991 29.0553 14.8437 26.4678 14.8437C23.8803 14.8437 21.4768 13.6991 19.867 11.9141C18.4615 13.4726 17.5811 15.5143 17.5811 17.7734V19.2383C17.5811 20.0479 18.2362 20.7031 19.0459 20.7031H33.792C34.6016 20.7031 35.2568 20.0479 35.2568 19.2383V17.7734C35.2568 15.5143 34.3763 13.4726 32.9709 11.9141Z" fill="url(#paint1_linear_253_2967)"/>
<path d="M14.1544 44.9611L6.6895 29.9949C5.9687 28.5497 4.2144 27.9603 2.76743 28.6772L0.816364 29.6437C0.0899008 30.0039 -0.205704 30.8869 0.156893 31.612L8.94594 49.1901C9.30736 49.915 10.1866 50.2035 10.9072 49.8481L12.8331 48.8939C14.2858 48.1744 14.8779 46.4118 14.1544 44.9611Z" fill="url(#paint2_linear_253_2967)"/>
<path d="M48.8021 24.1896C47.6008 23.3107 45.9309 23.4865 44.9349 24.5705L36.9271 34.4142C36.3705 35.0001 35.3158 35.3517 34.7591 35.3517H27.9329C27.1125 35.3517 26.468 34.7073 26.468 33.8868C26.468 33.0664 27.1125 32.422 27.9329 32.422C29.8948 32.422 32.0669 32.422 33.7922 32.422C35.4036 32.422 36.7219 31.1036 36.7219 29.4923C36.7219 27.881 35.4036 26.5626 33.7922 26.5626C26.9128 26.5626 33.4749 26.5626 26.1165 26.5626C25.3864 26.5626 25.0223 26.0996 24.4466 25.5957C22.1801 23.5562 18.7875 22.5736 15.3529 23.3697C13.4459 23.8117 12.1599 24.5821 10.8556 25.6151L10.8121 25.5798L8.69336 27.4445L17.0199 44.1407H19.4855H33.7922C36.5461 44.1407 39.183 42.8224 40.8236 40.6251L49.4172 28.3204C50.384 27.0313 50.1203 25.1565 48.8021 24.1896Z" fill="url(#paint3_linear_253_2967)"/>
</g>
<defs>
<linearGradient id="paint0_linear_253_2967" x1="32.3271" y1="3.21191e-07" x2="25.1886" y2="14.2564" gradientUnits="userSpaceOnUse">
<stop stop-color="#33F497"/>
<stop offset="1" stop-color="#09A5B4"/>
</linearGradient>
<linearGradient id="paint1_linear_253_2967" x1="35.2568" y1="11.9141" x2="32.1953" y2="24.3119" gradientUnits="userSpaceOnUse">
<stop stop-color="#33F497"/>
<stop offset="1" stop-color="#09A5B4"/>
</linearGradient>
<linearGradient id="paint2_linear_253_2967" x1="14.463" y1="28.3721" x2="-1.03106" y2="49.2327" gradientUnits="userSpaceOnUse">
<stop stop-color="#33F497"/>
<stop offset="1" stop-color="#09A5B4"/>
</linearGradient>
<linearGradient id="paint3_linear_253_2967" x1="49.9981" y1="23.0938" x2="42.5067" y2="52.6974" gradientUnits="userSpaceOnUse">
<stop stop-color="#33F497"/>
<stop offset="1" stop-color="#09A5B4"/>
</linearGradient>
<clipPath id="clip0_253_2967">
<rect width="50" height="50" fill="white"/>
</clipPath>
</defs>
</svg>
