<svg width="83" height="83" viewBox="0 0 83 83" fill="none" xmlns="http://www.w3.org/2000/svg">
<rect x="1.5" y="1.5" width="80" height="80" rx="18.5" fill="url(#paint0_linear_253_1452)" fill-opacity="0.1" stroke="url(#paint1_linear_253_1452)" stroke-width="3"/>
<g clip-path="url(#clip0_253_1452)">
<path d="M55.3604 34.7488C56.009 34.7488 56.5349 34.2229 56.5349 33.5742V32.341C56.5349 29.1003 53.8984 26.4639 50.6577 26.4639C50.6577 26.4639 32.2465 26.4666 32.2011 26.472C30.6513 26.5261 29.1627 27.1911 28.0896 28.3155C26.9897 29.468 26.4163 30.9669 26.4703 32.544C26.4681 32.5739 26.4669 49.4847 26.4669 49.4847C26.4669 53.373 29.6302 56.5363 33.5185 56.5363H50.6578C53.8984 56.5363 56.5349 53.8999 56.5349 50.6592V41.7417C56.5349 38.5011 53.8984 35.8646 50.6578 35.8646H32.3395C30.4537 35.8646 28.9077 34.3907 28.8198 32.5091C28.7751 31.5523 29.1193 30.639 29.7889 29.9373C30.4682 29.2255 31.4222 28.8174 32.4062 28.8174C32.4409 28.8174 50.6576 28.8129 50.6576 28.8129C52.603 28.8129 54.1857 30.3956 54.1857 32.341V33.5742C54.1858 34.2229 54.7117 34.7488 55.3604 34.7488ZM32.3395 38.2136H50.6577C52.6031 38.2136 54.1858 39.7963 54.1858 41.7417V50.6592C54.1858 52.6046 52.6031 54.1873 50.6577 54.1873H33.5185C30.9255 54.1873 28.8159 52.0777 28.8159 49.4847V37.0439C29.7983 37.7797 31.019 38.2136 32.3395 38.2136ZM51.8368 46.2005C51.8368 47.0113 51.1794 47.6686 50.3686 47.6686C48.4211 47.5913 48.4216 44.8093 50.3686 44.7323C51.1794 44.7323 51.8368 45.3896 51.8368 46.2005ZM51.8368 32.341C51.8368 31.6923 51.3109 31.1665 50.6622 31.1665H32.3395C30.7812 31.2285 30.7823 33.454 32.3395 33.5155H50.6622C51.3109 33.5155 51.8368 32.9897 51.8368 32.341Z" fill="url(#paint2_linear_253_1452)"/>
</g>
<defs>
<linearGradient id="paint0_linear_253_1452" x1="83" y1="2.2376e-06" x2="33.5147" y2="99.6441" gradientUnits="userSpaceOnUse">
<stop stop-color="#33F497"/>
<stop offset="1" stop-color="#09A5B4"/>
</linearGradient>
<linearGradient id="paint1_linear_253_1452" x1="83" y1="2.2376e-06" x2="33.5147" y2="99.6441" gradientUnits="userSpaceOnUse">
<stop stop-color="#33F497"/>
<stop offset="1" stop-color="#09A5B4"/>
</linearGradient>
<linearGradient id="paint2_linear_253_1452" x1="56.5349" y1="26.4639" x2="38.6038" y2="62.5647" gradientUnits="userSpaceOnUse">
<stop stop-color="#33F497"/>
<stop offset="1" stop-color="#09A5B4"/>
</linearGradient>
<clipPath id="clip0_253_1452">
<rect width="30.0725" height="30.0725" fill="white" transform="translate(26.4639 26.4639)"/>
</clipPath>
</defs>
</svg>
