<svg width="83" height="83" viewBox="0 0 83 83" fill="none" xmlns="http://www.w3.org/2000/svg">
<rect x="1.5" y="1.5" width="80" height="80" rx="18.5" fill="url(#paint0_linear_253_1471)" fill-opacity="0.1" stroke="url(#paint1_linear_253_1471)" stroke-width="3"/>
<g clip-path="url(#clip0_253_1471)">
<path d="M41.4999 26.4639C34.3579 26.4639 28.5781 32.2437 28.5781 39.3856V45.964C28.5781 47.9072 30.159 49.4881 32.1022 49.4881C34.0454 49.4881 35.6264 47.9072 35.6264 45.964V41.735C35.6264 39.7918 34.0454 38.2109 32.1022 38.2109C31.7077 38.2109 31.3286 38.2771 30.9741 38.3972C31.4742 33.0294 36.0036 28.8133 41.4999 28.8133C46.9962 28.8133 51.5256 33.0294 52.0257 38.3972C51.6712 38.2771 51.2921 38.2109 50.8975 38.2109C48.9543 38.2109 47.3734 39.7918 47.3734 41.735V45.964C47.3734 47.9072 48.9543 49.4881 50.8975 49.4881C51.2532 49.4881 51.5965 49.4346 51.9203 49.3362C51.4809 50.7821 50.1357 51.8375 48.5481 51.8375H44.822C44.337 50.4703 43.0313 49.4881 41.4999 49.4881C39.5567 49.4881 37.9758 51.069 37.9758 53.0122C37.9758 54.9554 39.5567 56.5363 41.4999 56.5363C43.0313 56.5363 44.337 55.5542 44.822 54.1869H48.5481C51.7868 54.1869 54.4216 51.5521 54.4216 48.3134V39.3856C54.4216 32.2437 48.6419 26.4639 41.4999 26.4639ZM32.1022 40.5603C32.75 40.5603 33.2769 41.0873 33.2769 41.735V45.964C33.2769 46.6117 32.75 47.1387 32.1022 47.1387C31.4545 47.1387 30.9275 46.6117 30.9275 45.964V41.735C30.9275 41.0873 31.4545 40.5603 32.1022 40.5603ZM41.4999 54.1869C40.8522 54.1869 40.3252 53.6599 40.3252 53.0122C40.3252 52.3645 40.8522 51.8375 41.4999 51.8375C42.1476 51.8375 42.6746 52.3645 42.6746 53.0122C42.6746 53.6599 42.1476 54.1869 41.4999 54.1869ZM50.8975 47.1387C50.2498 47.1387 49.7228 46.6117 49.7228 45.964V41.735C49.7228 41.0873 50.2498 40.5603 50.8975 40.5603C51.5453 40.5603 52.0722 41.0873 52.0722 41.735V45.964C52.0722 46.6117 51.5453 47.1387 50.8975 47.1387Z" fill="url(#paint2_linear_253_1471)"/>
</g>
<defs>
<linearGradient id="paint0_linear_253_1471" x1="83" y1="2.2376e-06" x2="33.5147" y2="99.6441" gradientUnits="userSpaceOnUse">
<stop stop-color="#33F497"/>
<stop offset="1" stop-color="#09A5B4"/>
</linearGradient>
<linearGradient id="paint1_linear_253_1471" x1="83" y1="2.2376e-06" x2="33.5147" y2="99.6441" gradientUnits="userSpaceOnUse">
<stop stop-color="#33F497"/>
<stop offset="1" stop-color="#09A5B4"/>
</linearGradient>
<linearGradient id="paint2_linear_253_1471" x1="54.4216" y1="26.4639" x2="34.924" y2="60.2035" gradientUnits="userSpaceOnUse">
<stop stop-color="#33F497"/>
<stop offset="1" stop-color="#09A5B4"/>
</linearGradient>
<clipPath id="clip0_253_1471">
<rect width="30.0725" height="30.0725" fill="white" transform="translate(26.4639 26.4639)"/>
</clipPath>
</defs>
</svg>
