<svg width="83" height="83" viewBox="0 0 83 83" fill="none" xmlns="http://www.w3.org/2000/svg">
<rect x="1.5" y="1.5" width="80" height="80" rx="18.5" fill="url(#paint0_linear_253_1480)" fill-opacity="0.1" stroke="url(#paint1_linear_253_1480)" stroke-width="3"/>
<g clip-path="url(#clip0_253_1480)">
<path d="M51.9484 41.3151H55.6553C56.1419 41.3151 56.5363 40.9207 56.5363 40.4341C56.5363 39.9475 56.1419 39.5531 55.6553 39.5531H52.2986C52.7208 36.8913 52.5249 35.0908 52.5138 34.9938C52.4738 34.6456 52.2313 34.3543 51.8962 34.2518C50.5574 33.8422 49.3909 33.4263 48.3761 33.0187V30.8405H51.4017C51.7654 31.866 52.7447 32.6026 53.8932 32.6026C55.3506 32.6026 56.5363 31.4169 56.5363 29.9595C56.5363 28.5021 55.3506 27.3164 53.8932 27.3164C52.7447 27.3164 51.7654 28.053 51.4017 29.0785H47.495C47.0085 29.0785 46.614 29.4729 46.614 29.9595V32.2523C43.3486 30.7105 42.2659 29.446 42.2007 29.3671C41.8489 28.8828 41.1516 28.8823 40.7995 29.3671C40.7344 29.446 39.6517 30.7105 36.3862 32.2523V29.9595C36.3862 29.4729 35.9917 29.0785 35.5052 29.0785H31.5985C31.2348 28.053 30.2555 27.3164 29.107 27.3164C27.6496 27.3164 26.4639 28.5021 26.4639 29.9595C26.4639 31.4169 27.6496 32.6026 29.107 32.6026C30.2555 32.6026 31.2348 31.866 31.5985 30.8405H34.6241V33.0187C33.6093 33.4263 32.4428 33.8422 31.104 34.2518C30.7689 34.3543 30.5264 34.6456 30.4864 34.9938C30.4753 35.0908 30.2794 36.8913 30.7016 39.5531H27.3449C26.8583 39.5531 26.4639 39.9475 26.4639 40.4341C26.4639 40.9207 26.8583 41.3151 27.3449 41.3151H31.0518C31.2476 42.1336 31.4794 42.9154 31.7685 43.726H29.3484C28.8618 43.726 28.4673 44.1205 28.4673 44.607C28.4673 45.0936 28.8618 45.488 29.3484 45.488H32.4798C33.2387 47.1661 34.1673 48.6983 35.2759 50.1323H31.5985C31.2348 49.1068 30.2555 48.3702 29.107 48.3702C27.6496 48.3702 26.4639 49.5559 26.4639 51.0133C26.4639 52.4707 27.6496 53.6564 29.107 53.6564C30.2555 53.6564 31.2348 52.9198 31.5985 51.8944H36.7785C38.0194 53.2176 39.4286 54.4328 40.996 55.5263C41.2988 55.7376 41.7014 55.7376 42.0042 55.5263C43.5716 54.4328 44.9807 53.2176 46.2217 51.8944H51.4017C51.7654 52.9198 52.7447 53.6564 53.8932 53.6564C55.3506 53.6564 56.5363 52.4707 56.5363 51.0133C56.5363 49.5559 55.3506 48.3702 53.8932 48.3702C52.7447 48.3702 51.7654 49.1068 51.4017 50.1323H47.7243C48.8314 48.7002 49.7605 47.1683 50.5204 45.488H53.6518C54.1384 45.488 54.5329 45.0936 54.5329 44.607C54.5329 44.1205 54.1384 43.726 53.6518 43.726H51.2317C51.5206 42.9161 51.7525 42.1343 51.9484 41.3151ZM53.8932 29.0785C54.379 29.0785 54.7743 29.4737 54.7743 29.9595C54.7743 30.4453 54.379 30.8405 53.8932 30.8405C53.4074 30.8405 53.0122 30.4453 53.0122 29.9595C53.0122 29.4737 53.4074 29.0785 53.8932 29.0785ZM29.107 30.8405C28.6212 30.8405 28.2259 30.4453 28.2259 29.9595C28.2259 29.4737 28.6212 29.0785 29.107 29.0785C29.5928 29.0785 29.988 29.4737 29.988 29.9595C29.988 30.4453 29.5928 30.8405 29.107 30.8405ZM29.107 51.8944C28.6212 51.8944 28.2259 51.4991 28.2259 51.0133C28.2259 50.5275 28.6212 50.1323 29.107 50.1323C29.5928 50.1323 29.988 50.5275 29.988 51.0133C29.988 51.4991 29.5928 51.8944 29.107 51.8944ZM53.8932 50.1323C54.379 50.1323 54.7743 50.5275 54.7743 51.0133C54.7743 51.4991 54.379 51.8944 53.8932 51.8944C53.4074 51.8944 53.0122 51.4991 53.0122 51.0133C53.0122 50.5275 53.4074 50.1323 53.8932 50.1323ZM41.4999 53.7209C37.3657 50.6967 34.3993 46.7298 32.9947 41.7827C32.2121 39.026 32.1708 36.7598 32.2037 35.7544C35.2014 34.7991 39.122 33.229 41.5001 31.1439C43.8705 33.2222 47.8068 34.8017 50.7978 35.7548C50.8572 37.4865 50.6142 39.6096 50.0266 41.7077C49.0913 45.048 46.8522 49.7986 41.4999 53.7209Z" fill="url(#paint2_linear_253_1480)"/>
<path d="M45.2714 39.2671V38.6937C45.2714 36.6139 43.5793 34.9219 41.4996 34.9219C39.4198 34.9219 37.7278 36.6139 37.7278 38.6937V39.2671C37.1017 39.4864 36.6514 40.0828 36.6514 40.7828V45.8284C36.6514 46.7139 37.3718 47.4343 38.2572 47.4343H44.7418C45.6273 47.4343 46.3477 46.7139 46.3477 45.8284V40.7828C46.3477 40.0828 45.8974 39.4864 45.2714 39.2671ZM41.4996 36.6839C42.6077 36.6839 43.5093 37.5855 43.5093 38.6937V39.177H39.4898V38.6937C39.4898 37.5855 40.3914 36.6839 41.4996 36.6839ZM44.5856 45.6721H38.4135V40.939H44.5857V45.6721H44.5856Z" fill="url(#paint3_linear_253_1480)"/>
<path d="M41.5002 42.1133C41.0136 42.1133 40.6191 42.5077 40.6191 42.9943V43.616C40.6191 44.1026 41.0136 44.4971 41.5002 44.4971C41.9867 44.4971 42.3812 44.1026 42.3812 43.616V42.9943C42.3812 42.5077 41.9867 42.1133 41.5002 42.1133Z" fill="url(#paint4_linear_253_1480)"/>
</g>
<defs>
<linearGradient id="paint0_linear_253_1480" x1="83" y1="2.2376e-06" x2="33.5147" y2="99.6441" gradientUnits="userSpaceOnUse">
<stop stop-color="#33F497"/>
<stop offset="1" stop-color="#09A5B4"/>
</linearGradient>
<linearGradient id="paint1_linear_253_1480" x1="83" y1="2.2376e-06" x2="33.5147" y2="99.6441" gradientUnits="userSpaceOnUse">
<stop stop-color="#33F497"/>
<stop offset="1" stop-color="#09A5B4"/>
</linearGradient>
<linearGradient id="paint2_linear_253_1480" x1="56.5363" y1="27.3164" x2="40.226" y2="62.132" gradientUnits="userSpaceOnUse">
<stop stop-color="#33F497"/>
<stop offset="1" stop-color="#09A5B4"/>
</linearGradient>
<linearGradient id="paint3_linear_253_1480" x1="46.3477" y1="34.9219" x2="37.8407" y2="48.1964" gradientUnits="userSpaceOnUse">
<stop stop-color="#33F497"/>
<stop offset="1" stop-color="#09A5B4"/>
</linearGradient>
<linearGradient id="paint4_linear_253_1480" x1="42.3812" y1="42.1133" x2="40.7297" y2="44.5714" gradientUnits="userSpaceOnUse">
<stop stop-color="#33F497"/>
<stop offset="1" stop-color="#09A5B4"/>
</linearGradient>
<clipPath id="clip0_253_1480">
<rect width="30.0725" height="30.0725" fill="white" transform="translate(26.4639 26.4639)"/>
</clipPath>
</defs>
</svg>
