<svg width="50" height="50" viewBox="0 0 50 50" fill="none" xmlns="http://www.w3.org/2000/svg">
<path d="M45.8327 17.7087C45.8327 24.5003 40.8327 30.1045 34.3327 31.0837V30.9587C33.6869 22.8753 27.1244 16.3128 18.9785 15.667H18.916C19.8952 9.16699 25.4994 4.16699 32.2911 4.16699C39.7702 4.16699 45.8327 10.2295 45.8327 17.7087Z" fill="url(#paint0_linear_253_2940)"/>
<path d="M31.2077 31.2083C30.6868 24.6042 25.3952 19.3125 18.791 18.7917C18.4369 18.7708 18.0618 18.75 17.7077 18.75C10.2285 18.75 4.16602 24.8125 4.16602 32.2917C4.16602 39.7708 10.2285 45.8333 17.7077 45.8333C25.1868 45.8333 31.2494 39.7708 31.2494 32.2917C31.2494 31.9375 31.2285 31.5625 31.2077 31.2083ZM19.541 34.125L17.7077 37.5L15.8743 34.125L12.4993 32.2917L15.8743 30.4583L17.7077 27.0833L19.541 30.4583L22.916 32.2917L19.541 34.125Z" fill="url(#paint1_linear_253_2940)"/>
<defs>
<linearGradient id="paint0_linear_253_2940" x1="45.8327" y1="4.16699" x2="29.7848" y2="36.4813" gradientUnits="userSpaceOnUse">
<stop stop-color="#33F497"/>
<stop offset="1" stop-color="#09A5B4"/>
</linearGradient>
<linearGradient id="paint1_linear_253_2940" x1="31.2494" y1="18.75" x2="15.102" y2="51.2644" gradientUnits="userSpaceOnUse">
<stop stop-color="#33F497"/>
<stop offset="1" stop-color="#09A5B4"/>
</linearGradient>
</defs>
</svg>
