<svg width="50" height="50" viewBox="0 0 50 50" fill="none" xmlns="http://www.w3.org/2000/svg">
<g clip-path="url(#clip0_253_2961)">
<path d="M18.75 14.583H4.16667C1.86458 14.583 0 16.4476 0 18.7497V45.833C0 48.1351 1.86458 49.9997 4.16667 49.9997H18.75C21.0521 49.9997 22.9167 48.1351 22.9167 45.833V18.7497C22.9167 16.4476 21.0521 14.583 18.75 14.583ZM18.75 45.833H4.16667V19.7913C4.16667 19.2163 4.63333 18.7497 5.20833 18.7497H6.25C6.25 19.8997 7.18333 20.833 8.33333 20.833H14.5833C15.7333 20.833 16.6667 19.8997 16.6667 18.7497H17.7083C18.2833 18.7497 18.75 19.2163 18.75 19.7913V45.833Z" fill="url(#paint0_linear_253_2961)"/>
<path d="M38.9212 21.3896C38.1003 20.5896 36.7837 20.6021 35.9753 21.4271L32.9691 24.5083L31.8357 23.375C31.3899 22.9271 30.717 22.7938 30.1337 23.0354C29.5503 23.2771 29.167 23.8458 29.167 24.4792V29.6875C29.167 30.55 29.867 31.25 30.7295 31.25H35.9378C36.5712 31.25 37.1399 30.8688 37.3816 30.2854C37.6212 29.7021 37.4899 29.0292 37.042 28.5833L35.9149 27.4563L38.9566 24.3375C39.7607 23.5125 39.7441 22.1938 38.9212 21.3896Z" fill="url(#paint1_linear_253_2961)"/>
<path d="M43.75 0H6.25C2.8125 0 0 2.8125 0 6.25V11.5417C1.22917 10.8333 2.64583 10.4167 4.16667 10.4167H45.8333V39.5833C45.8333 40.7292 44.8958 41.6667 43.75 41.6667H27.0833V45.8333H43.75C47.1875 45.8333 50 43.0208 50 39.5833V6.25C50 2.8125 47.1875 0 43.75 0Z" fill="url(#paint2_linear_253_2961)"/>
</g>
<defs>
<linearGradient id="paint0_linear_253_2961" x1="22.9167" y1="14.583" x2="-2.68447" y2="47.9393" gradientUnits="userSpaceOnUse">
<stop stop-color="#33F497"/>
<stop offset="1" stop-color="#09A5B4"/>
</linearGradient>
<linearGradient id="paint1_linear_253_2961" x1="39.5492" y1="20.7988" x2="33.2932" y2="33.3128" gradientUnits="userSpaceOnUse">
<stop stop-color="#33F497"/>
<stop offset="1" stop-color="#09A5B4"/>
</linearGradient>
<linearGradient id="paint2_linear_253_2961" x1="50" y1="1.23562e-06" x2="24.1336" y2="56.8198" gradientUnits="userSpaceOnUse">
<stop stop-color="#33F497"/>
<stop offset="1" stop-color="#09A5B4"/>
</linearGradient>
<clipPath id="clip0_253_2961">
<rect width="50" height="50" fill="white"/>
</clipPath>
</defs>
</svg>
