<svg width="50" height="50" viewBox="0 0 50 50" fill="none" xmlns="http://www.w3.org/2000/svg">
<path d="M25 3.125C20.6735 3.125 16.4442 4.40795 12.8469 6.8116C9.24959 9.21526 6.44581 12.6317 4.79014 16.6288C3.13448 20.6259 2.70128 25.0243 3.54533 29.2676C4.38938 33.5109 6.47277 37.4087 9.53205 40.468C12.5913 43.5272 16.4891 45.6106 20.7324 46.4547C24.9757 47.2987 29.3741 46.8655 33.3712 45.2099C37.3683 43.5542 40.7848 40.7504 43.1884 37.1531C45.5921 33.5558 46.875 29.3265 46.875 25C46.8667 19.2009 44.5594 13.6417 40.4588 9.54117C36.3583 5.4406 30.7991 3.13327 25 3.125ZM42.0469 17.1875H34.8281C33.7146 13.3265 31.7739 9.75415 29.1406 6.71875C31.9517 7.35466 34.5783 8.62992 36.8167 10.4455C39.055 12.2611 40.8447 14.5681 42.0469 17.1875ZM32.8125 25C32.8134 26.5735 32.6616 28.1433 32.3594 29.6875H17.6406C17.0365 26.5917 17.0365 23.4083 17.6406 20.3125H32.3594C32.6616 21.8567 32.8134 23.4265 32.8125 25ZM25 43.125C21.9882 40.2873 19.7325 36.7427 18.4375 32.8125H31.5625C30.2675 36.7427 28.0118 40.2873 25 43.125ZM25 6.875C28.0118 9.71265 30.2675 13.2573 31.5625 17.1875H18.4375C19.7325 13.2573 21.9882 9.71265 25 6.875ZM20.8594 6.71875C18.2262 9.75415 16.2854 13.3265 15.1719 17.1875H7.95314C9.15532 14.5681 10.9451 12.2611 13.1834 10.4455C15.4217 8.62992 18.0483 7.35466 20.8594 6.71875ZM6.25001 25C6.24806 23.4186 6.44758 21.8434 6.84376 20.3125H14.4688C13.9271 23.414 13.9271 26.586 14.4688 29.6875H6.84376C6.44758 28.1566 6.24806 26.5814 6.25001 25ZM7.95314 32.8125H15.1719C16.2854 36.6735 18.2262 40.2459 20.8594 43.2812C18.0483 42.6453 15.4217 41.3701 13.1834 39.5545C10.9451 37.7389 9.15532 35.4319 7.95314 32.8125ZM29.1406 43.2812C31.7739 40.2459 33.7146 36.6735 34.8281 32.8125H42.0469C40.8447 35.4319 39.055 37.7389 36.8167 39.5545C34.5783 41.3701 31.9517 42.6453 29.1406 43.2812ZM35.5313 29.6875C36.0729 26.586 36.0729 23.414 35.5313 20.3125H43.1563C43.9479 23.3874 43.9479 26.6126 43.1563 29.6875H35.5313Z" fill="url(#paint0_linear_253_2912)"/>
<defs>
<linearGradient id="paint0_linear_253_2912" x1="46.875" y1="3.125" x2="20.7909" y2="55.6483" gradientUnits="userSpaceOnUse">
<stop stop-color="#33F497"/>
<stop offset="1" stop-color="#09A5B4"/>
</linearGradient>
</defs>
</svg>
