<svg width="50" height="50" viewBox="0 0 50 50" fill="none" xmlns="http://www.w3.org/2000/svg">
<path d="M7.64861 5.90039C7.64726 5.90039 7.64575 5.90039 7.6444 5.90039C7.1715 5.90039 6.72672 6.08473 6.39086 6.41975C6.0513 6.75847 5.86426 7.20949 5.86426 7.68962V34.5188C5.86426 35.5027 6.6678 36.305 7.65568 36.3076C11.8203 36.3175 18.7978 37.1855 23.6113 42.2227V14.1452C23.6113 13.8117 23.5261 13.4984 23.3653 13.2391C19.4146 6.87682 11.8227 5.91015 7.64861 5.90039Z" fill="url(#paint0_linear_253_2951)"/>
<path d="M44.1355 34.519V7.68962C44.1355 7.20949 43.9485 6.75847 43.6089 6.41975C43.2731 6.08473 42.828 5.90039 42.3556 5.90039C42.354 5.90039 42.3525 5.90039 42.3512 5.90039C38.1773 5.91032 30.5853 6.87699 26.6345 13.2393C26.4737 13.4986 26.3887 13.8119 26.3887 14.1454V42.2227C31.2022 37.1855 38.1796 36.3175 42.3443 36.3076C43.332 36.305 44.1355 35.5027 44.1355 34.519Z" fill="url(#paint1_linear_253_2951)"/>
<path d="M48.2111 12.0879H46.9138V34.5191C46.9138 37.0311 44.8672 39.0794 42.3513 39.0856C38.8188 39.094 32.9942 39.7848 28.8691 43.689C36.0035 41.9422 43.5244 43.0777 47.8106 44.0545C48.3458 44.1764 48.8988 44.0505 49.3276 43.7087C49.7549 43.3678 50 42.8582 50 42.3112V13.8768C50.0002 12.8904 49.1975 12.0879 48.2111 12.0879Z" fill="url(#paint2_linear_253_2951)"/>
<path d="M3.08621 34.5191V12.0879H1.7889C0.802696 12.0879 0 12.8904 0 13.8768V42.3107C0 42.8579 0.245119 43.3673 0.672393 43.7082C1.10085 44.0498 1.65337 44.1762 2.1894 44.054C6.47561 43.0771 13.9967 41.9417 21.1307 43.6885C17.0058 39.7844 11.1812 39.0939 7.64868 39.0855C5.13301 39.0794 3.08621 37.0311 3.08621 34.5191Z" fill="url(#paint3_linear_253_2951)"/>
<defs>
<linearGradient id="paint0_linear_253_2951" x1="23.6113" y1="5.90039" x2="-3.5655" y2="32.6381" gradientUnits="userSpaceOnUse">
<stop stop-color="#33F497"/>
<stop offset="1" stop-color="#09A5B4"/>
</linearGradient>
<linearGradient id="paint1_linear_253_2951" x1="44.1355" y1="5.90039" x2="16.9587" y2="32.6379" gradientUnits="userSpaceOnUse">
<stop stop-color="#33F497"/>
<stop offset="1" stop-color="#09A5B4"/>
</linearGradient>
<linearGradient id="paint2_linear_253_2951" x1="50" y1="12.0879" x2="26.9832" y2="42.6811" gradientUnits="userSpaceOnUse">
<stop stop-color="#33F497"/>
<stop offset="1" stop-color="#09A5B4"/>
</linearGradient>
<linearGradient id="paint3_linear_253_2951" x1="21.1307" y1="12.0879" x2="-1.8858" y2="42.6808" gradientUnits="userSpaceOnUse">
<stop stop-color="#33F497"/>
<stop offset="1" stop-color="#09A5B4"/>
</linearGradient>
</defs>
</svg>
