<svg width="300" height="300" viewBox="0 0 300 300" fill="none" xmlns="http://www.w3.org/2000/svg">
<path d="M64.2016 249.717C112.617 278.975 191.115 278.976 239.531 249.718C287.946 220.459 287.946 173.023 239.531 143.766C191.115 114.508 112.617 114.508 64.201 143.765C15.7858 173.023 15.7858 220.459 64.2016 249.717Z" fill="url(#paint0_linear_253_1499)" fill-opacity="0.1"/>
<path d="M244.052 216.585C248.478 219.26 255.654 219.26 260.08 216.585C264.507 213.911 264.507 209.574 260.08 206.9C255.654 204.225 248.478 204.225 244.052 206.9C239.626 209.574 239.626 213.911 244.052 216.585Z" fill="url(#paint1_linear_253_1499)" fill-opacity="0.2"/>
<path d="M189.358 31.4667L222.522 50.6139C223.134 50.9679 223.631 51.8277 223.631 52.5351V143.701C223.631 144.408 223.134 145.269 222.522 145.622L189.358 164.769C188.745 165.123 187.752 165.123 187.139 164.769L153.977 145.623C153.364 145.269 152.867 144.409 152.867 143.701V52.5351C152.867 51.8277 153.364 50.9673 153.977 50.6139L187.14 31.4667C187.752 31.1127 188.745 31.1127 189.358 31.4667Z" fill="#37474F"/>
<path d="M152.868 52.5333V143.701C152.868 144.408 153.366 145.269 153.975 145.622L187.141 164.77C187.444 164.949 187.848 165.036 188.248 165.036V71.3067C187.848 71.3067 187.449 71.2143 187.141 71.0403L153.975 51.8925L153.673 51.6417L153.278 51.3135C153.027 51.6927 152.868 52.1337 152.868 52.5333Z" fill="#263238"/>
<path d="M218.36 61.5078L193.522 75.8484C192.909 76.2024 192.412 77.0622 192.412 77.7696L192.413 87.2244C192.413 87.9318 192.91 88.2186 193.522 87.8652L218.36 73.5246C218.973 73.1706 219.47 72.3108 219.47 71.6034L219.47 62.1486C219.47 61.4406 218.973 61.1544 218.36 61.5078Z" fill="#455A64"/>
<path d="M217.388 65.6746C217.388 66.3382 216.891 67.1632 216.279 67.5166L195.603 79.4536C194.99 79.8076 194.493 79.5562 194.493 78.8926C194.493 78.229 194.99 77.404 195.603 77.0506L216.279 65.1136C216.892 64.7596 217.388 65.011 217.388 65.6746Z" fill="url(#paint2_linear_253_1499)"/>
<path d="M217.388 70.4812C217.388 71.1448 216.891 71.9698 216.279 72.3232L195.603 84.2602C194.99 84.6142 194.493 84.3628 194.493 83.6992C194.493 83.0356 194.99 82.2106 195.603 81.8572L216.279 69.9202C216.892 69.5662 217.388 69.8176 217.388 70.4812Z" fill="#263238"/>
<path d="M216.279 69.9202L204.9 76.4896V78.8926L216.279 72.3232C216.892 71.9692 217.389 71.1448 217.389 70.4812C217.388 69.8176 216.891 69.5662 216.279 69.9202Z" fill="url(#paint3_linear_253_1499)"/>
<path d="M218.36 78.33L193.522 92.6706C192.909 93.0246 192.412 93.8844 192.412 94.5918L192.413 104.047C192.413 104.754 192.91 105.041 193.522 104.687L218.36 90.3462C218.973 89.9922 219.47 89.1324 219.47 88.425L219.47 78.9702C219.47 78.2634 218.973 77.9766 218.36 78.33Z" fill="#455A64"/>
<path d="M217.388 82.4968C217.388 83.1604 216.891 83.9854 216.279 84.3388L195.603 96.2758C194.99 96.6298 194.493 96.3784 194.493 95.7148C194.493 95.0512 194.99 94.2262 195.603 93.8728L216.279 81.9358C216.892 81.5818 217.388 81.8332 217.388 82.4968Z" fill="url(#paint4_linear_253_1499)"/>
<path d="M217.388 87.3035C217.388 87.9671 216.891 88.7921 216.279 89.1455L195.603 101.082C194.99 101.436 194.493 101.185 194.493 100.521C194.493 99.8579 194.99 99.0329 195.603 98.6795L216.279 86.7425C216.892 86.3885 217.388 86.6399 217.388 87.3035Z" fill="#263238"/>
<path d="M216.279 86.7425L198.656 96.9167V99.3197L216.279 89.1455C216.891 88.7915 217.388 87.9671 217.388 87.3035C217.388 86.6399 216.891 86.3885 216.279 86.7425Z" fill="url(#paint5_linear_253_1499)"/>
<path d="M218.359 95.1536L193.521 109.494C192.908 109.848 192.411 110.708 192.411 111.415L192.412 120.87C192.412 121.578 192.909 121.864 193.521 121.51L218.359 107.17C218.972 106.816 219.469 105.956 219.469 105.249L219.469 95.7938C219.469 95.0864 218.972 94.7996 218.359 95.1536Z" fill="#455A64"/>
<path d="M217.387 99.3191C217.387 99.9827 216.89 100.808 216.278 101.161L195.602 113.098C194.989 113.452 194.492 113.201 194.492 112.537C194.492 111.874 194.989 111.048 195.602 110.695L216.278 98.7581C216.891 98.4041 217.387 98.6555 217.387 99.3191Z" fill="url(#paint6_linear_253_1499)"/>
<path d="M217.387 104.126C217.387 104.79 216.89 105.615 216.278 105.968L195.602 117.905C194.989 118.259 194.492 118.008 194.492 117.344C194.492 116.681 194.989 115.856 195.602 115.502L216.278 103.565C216.891 103.212 217.387 103.463 217.387 104.126Z" fill="#263238"/>
<path d="M216.278 103.565L209.062 107.731V110.134L216.278 105.968C216.89 105.614 217.387 104.79 217.387 104.126C217.387 103.463 216.89 103.212 216.278 103.565Z" fill="url(#paint7_linear_253_1499)"/>
<path d="M218.36 111.977L193.522 126.317C192.909 126.671 192.412 127.531 192.412 128.239L192.413 137.693C192.413 138.401 192.91 138.688 193.522 138.334L218.36 123.993C218.973 123.639 219.47 122.779 219.47 122.072L219.47 112.617C219.47 111.91 218.973 111.623 218.36 111.977Z" fill="#455A64"/>
<path d="M217.388 116.143C217.388 116.807 216.891 117.632 216.279 117.985L195.603 129.922C194.99 130.276 194.493 130.025 194.493 129.361C194.493 128.698 194.99 127.873 195.603 127.519L216.279 115.582C216.892 115.228 217.388 115.479 217.388 116.143Z" fill="url(#paint8_linear_253_1499)"/>
<path d="M217.388 120.95C217.388 121.614 216.891 122.439 216.279 122.792L195.603 134.729C194.99 135.083 194.493 134.832 194.493 134.168C194.493 133.504 194.99 132.68 195.603 132.326L216.279 120.389C216.892 120.035 217.388 120.286 217.388 120.95Z" fill="#263238"/>
<path d="M216.279 120.389L204.9 126.958V129.361L216.279 122.792C216.892 122.438 217.389 121.613 217.389 120.95C217.388 120.287 216.891 120.035 216.279 120.389Z" fill="url(#paint9_linear_253_1499)"/>
<path d="M218.36 128.8L193.522 143.14C192.909 143.494 192.412 144.354 192.412 145.062L192.413 154.516C192.413 155.224 192.91 155.511 193.522 155.157L218.36 140.817C218.973 140.463 219.47 139.603 219.47 138.895L219.47 129.441C219.47 128.733 218.973 128.446 218.36 128.8Z" fill="#455A64"/>
<path d="M217.388 132.967C217.388 133.63 216.891 134.455 216.279 134.809L195.603 146.746C194.99 147.1 194.493 146.848 194.493 146.185C194.493 145.521 194.99 144.696 195.603 144.343L216.279 132.406C216.892 132.052 217.388 132.303 217.388 132.967Z" fill="url(#paint10_linear_253_1499)"/>
<path d="M217.388 137.773C217.388 138.437 216.891 139.262 216.279 139.615L195.603 151.552C194.99 151.906 194.493 151.655 194.493 150.991C194.493 150.328 194.99 149.503 195.603 149.149L216.279 137.212C216.892 136.858 217.388 137.11 217.388 137.773Z" fill="#263238"/>
<path d="M216.279 137.212L200.737 146.185V148.588L216.279 139.615C216.891 139.262 217.388 138.437 217.388 137.773C217.388 137.11 216.892 136.858 216.279 137.212Z" fill="url(#paint11_linear_253_1499)"/>
<path d="M183.046 77.0939C181.897 76.4273 180.965 77.0345 180.965 78.4493V133.412C180.965 134.827 181.897 136.514 183.046 137.181C184.196 137.847 185.128 137.24 185.128 135.825L185.128 80.8619C185.128 79.4471 184.196 77.7605 183.046 77.0939Z" fill="#37474F"/>
<path d="M183.045 135.965C182.47 135.633 182.005 134.791 182.005 134.083L182.005 78.9659C182.005 78.2585 182.471 77.9537 183.046 78.2855C183.621 78.6173 184.087 79.4597 184.086 80.1671L184.086 135.284C184.086 135.992 183.62 136.297 183.045 135.965Z" fill="#263238"/>
<path d="M183.045 135.965C182.47 135.633 182.005 134.791 182.005 134.083L182.005 107.731L184.087 108.933L184.086 135.285C184.086 135.992 183.62 136.297 183.045 135.965Z" fill="url(#paint12_linear_253_1499)"/>
<path d="M176.802 73.4894C175.652 72.8228 174.721 73.43 174.721 74.8448V129.808C174.721 131.223 175.652 132.91 176.802 133.576C177.952 134.243 178.883 133.636 178.883 132.221L178.884 77.2574C178.884 75.8432 177.952 74.156 176.802 73.4894Z" fill="#37474F"/>
<path d="M176.802 132.36C176.227 132.028 175.762 131.186 175.762 130.479V75.3614C175.762 74.654 176.228 74.3492 176.803 74.681C177.378 75.0128 177.843 75.8553 177.843 76.5626L177.843 131.68C177.843 132.387 177.376 132.692 176.802 132.36Z" fill="url(#paint13_linear_253_1499)"/>
<path d="M170.558 69.8849C169.408 69.2183 168.477 69.8255 168.477 71.2403V126.203C168.477 127.618 169.408 129.305 170.558 129.972C171.708 130.639 172.639 130.031 172.639 128.617L172.64 73.6529C172.639 72.2387 171.707 70.5515 170.558 69.8849Z" fill="#37474F"/>
<path d="M170.558 128.756C169.983 128.424 169.518 127.582 169.518 126.874L169.518 71.757C169.518 71.0496 169.984 70.7448 170.559 71.0766C171.133 71.4084 171.6 72.2508 171.599 72.9582L171.598 128.075C171.598 128.783 171.133 129.088 170.558 128.756Z" fill="#263238"/>
<path d="M170.558 128.756C169.983 128.424 169.518 127.581 169.518 126.874L169.518 84.2998L171.6 85.5016L171.599 128.076C171.598 128.783 171.133 129.087 170.558 128.756Z" fill="url(#paint14_linear_253_1499)"/>
<path d="M164.314 66.2794C163.164 65.6128 162.232 66.22 162.232 67.6348V122.598C162.232 124.013 163.164 125.7 164.314 126.366C165.463 127.033 166.395 126.426 166.395 125.011L166.396 70.0474C166.395 68.6332 165.463 66.946 164.314 66.2794Z" fill="#37474F"/>
<path d="M164.314 125.15C163.739 124.818 163.273 123.976 163.273 123.269V68.1515C163.273 67.4441 163.74 67.1393 164.314 67.4711C164.889 67.8029 165.355 68.6453 165.355 69.3527L165.355 124.47C165.355 125.177 164.889 125.482 164.314 125.15Z" fill="#263238"/>
<path d="M164.314 125.151C163.739 124.819 163.273 123.977 163.273 123.269V113.967L165.355 115.169L165.354 124.471C165.355 125.178 164.889 125.483 164.314 125.151Z" fill="url(#paint15_linear_253_1499)"/>
<path d="M158.07 62.6749C156.92 62.0083 155.988 62.6155 155.988 64.0303V118.993C155.988 120.408 156.92 122.095 158.07 122.762C159.219 123.429 160.151 122.821 160.151 121.407L160.152 66.4429C160.151 65.0287 159.219 63.3415 158.07 62.6749Z" fill="#37474F"/>
<path d="M158.07 121.546C157.495 121.214 157.029 120.372 157.029 119.664L157.03 64.547C157.03 63.8396 157.496 63.5348 158.07 63.8666C158.645 64.1984 159.111 65.0408 159.111 65.7482L159.11 120.865C159.11 121.573 158.644 121.878 158.07 121.546Z" fill="#263238"/>
<path d="M158.07 121.545C157.495 121.214 157.029 120.371 157.029 119.664L157.03 90.9082L159.111 92.11L159.111 120.866C159.11 121.572 158.644 121.877 158.07 121.545Z" fill="url(#paint16_linear_253_1499)"/>
<path d="M184.239 143.869L156.876 128.07C156.385 127.787 155.988 128.017 155.988 128.583V138.549C155.988 139.115 156.385 139.803 156.876 140.087L184.239 155.885C184.729 156.168 185.127 155.938 185.127 155.372V145.405C185.127 144.84 184.729 144.152 184.239 143.869Z" fill="#37474F"/>
<path d="M183.115 146.824C183.115 147.488 182.618 147.739 182.006 147.385L159.111 134.163C158.499 133.809 158.002 132.985 158.002 132.321C158.002 131.657 158.498 131.406 159.111 131.76L182.007 144.982C182.619 145.336 183.115 146.161 183.115 146.824Z" fill="#263238"/>
<path d="M183.114 146.824C183.114 147.488 182.618 147.739 182.005 147.385L165.355 137.767L165.354 135.364L182.006 144.982C182.618 145.336 183.114 146.161 183.114 146.824Z" fill="url(#paint17_linear_253_1499)"/>
<path d="M183.115 151.631C183.115 152.294 182.618 152.546 182.006 152.192L159.111 138.97C158.499 138.616 158.002 137.791 158.002 137.128C158.002 136.464 158.498 136.213 159.111 136.567L182.007 149.789C182.619 150.142 183.115 150.967 183.115 151.631Z" fill="#263238"/>
<path d="M183.115 151.631C183.115 152.295 182.619 152.546 182.006 152.192L175.762 148.587L175.762 146.184L182.007 149.788C182.619 150.142 183.115 150.967 183.115 151.631Z" fill="url(#paint18_linear_253_1499)"/>
<path d="M153.977 50.6139L187.141 31.4667C187.753 31.1127 188.747 31.1127 189.36 31.4667L222.523 50.6133C223.135 50.9673 223.135 51.5403 222.523 51.8943L189.359 71.0415C188.746 71.3955 187.753 71.3955 187.14 71.0415L153.978 51.8949C153.364 51.5409 153.364 50.9673 153.977 50.6139Z" fill="#455A64"/>
<path d="M188.915 66.4916L214.64 51.6386C215.008 51.4262 215.306 50.9102 215.306 50.486V49.6196C215.306 49.1948 215.008 48.6788 214.64 48.4664L188.915 33.6134C188.547 33.401 187.951 33.401 187.583 33.6134L161.858 48.4664C161.49 48.6788 161.192 49.1948 161.192 49.619V50.4854C161.192 50.9096 161.491 51.4262 161.858 51.638L187.583 66.491C187.951 66.704 188.548 66.704 188.915 66.4916Z" fill="#263238"/>
<path d="M214.641 49.2357L188.916 64.0887C188.548 64.3011 187.952 64.3011 187.584 64.0887L161.859 49.2357C161.491 49.0233 161.491 48.6795 161.859 48.4671L187.584 34.1271C187.952 33.9147 188.548 33.9147 188.916 34.1271L214.641 48.4671C215.009 48.6795 215.009 49.0233 214.641 49.2357Z" fill="#455A64"/>
<path d="M188.248 64.2463V66.6493C188.489 66.6493 188.73 66.5983 188.914 66.4903L214.641 51.6367C215.01 51.4267 215.307 50.9089 215.307 50.4841V49.6183C215.307 49.2445 215.076 48.7987 214.764 48.5527C215.004 48.7627 214.964 49.0495 214.641 49.2343L188.914 64.0879C188.73 64.1953 188.489 64.2463 188.248 64.2463Z" fill="#37474F"/>
<path d="M188.915 59.2816L206.316 49.2352C206.683 49.0228 206.981 48.5068 206.981 48.0826V47.2162C206.981 46.792 206.683 46.2754 206.316 46.0636L195.159 39.6226C194.791 39.4102 194.289 38.962 194.035 38.6212L188.707 31.4434C188.454 31.1026 187.951 30.9982 187.584 31.2106L170.183 41.2564C169.815 41.4688 169.518 41.9848 169.518 42.4096L169.518 48.0826C169.518 48.5074 169.816 49.0234 170.184 49.2352L187.584 59.2816C187.951 59.4934 188.548 59.4934 188.915 59.2816Z" fill="#263238"/>
<path d="M187.584 56.878L176.427 50.437C176.25 50.335 176.042 50.1778 175.845 50.0044C175.634 49.8178 175.435 49.612 175.304 49.4356L169.976 42.2578C169.722 41.917 169.815 41.4688 170.183 41.2564L187.584 31.2106C187.952 30.9982 188.454 31.1026 188.708 31.4434L194.036 38.6212C194.289 38.962 194.699 39.4504 195.067 39.6628L206.316 46.0636C206.684 46.276 206.684 46.6198 206.316 46.8322L188.915 56.8786C188.547 57.0904 187.951 57.0904 187.584 56.878Z" fill="#455A64"/>
<path d="M170.183 41.2564L187.584 31.2106C187.951 30.9982 188.454 31.1026 188.707 31.4434L194.035 38.6212C194.167 38.7988 194.367 39.0016 194.58 39.1882C194.58 39.1882 175.852 50.008 175.846 50.0032C175.634 49.8166 175.435 49.6126 175.304 49.4356L169.976 42.2578C169.722 41.917 169.815 41.4688 170.183 41.2564Z" fill="#37474F"/>
<path d="M202.094 46.2395C201.663 45.9905 200.964 45.9905 200.533 46.2395C200.101 46.4885 200.101 46.8917 200.533 47.1407C200.963 47.3897 201.662 47.3897 202.094 47.1407C202.525 46.8923 202.525 46.4885 202.094 46.2395Z" fill="url(#paint19_linear_253_1499)"/>
<path d="M198.972 48.0422C198.541 47.7932 197.842 47.7932 197.411 48.0422C196.98 48.2912 196.98 48.6944 197.411 48.9434C197.842 49.1924 198.541 49.1924 198.972 48.9434C199.403 48.695 199.403 48.2912 198.972 48.0422Z" fill="url(#paint20_linear_253_1499)"/>
<path d="M195.849 49.844C195.418 49.595 194.719 49.595 194.288 49.844C193.857 50.093 193.857 50.4962 194.288 50.7452C194.719 50.9942 195.418 50.9942 195.849 50.7452C196.281 50.4968 196.281 50.093 195.849 49.844Z" fill="#263238"/>
<path d="M192.728 51.6467C192.297 51.3977 191.598 51.3977 191.167 51.6467C190.736 51.8957 190.736 52.2989 191.167 52.5479C191.598 52.7969 192.297 52.7969 192.728 52.5479C193.159 52.2995 193.159 51.8957 192.728 51.6467Z" fill="#263238"/>
<path d="M199.752 44.8879C199.321 44.6389 198.622 44.6389 198.191 44.8879C197.759 45.1369 197.759 45.5401 198.191 45.7891C198.622 46.0381 199.321 46.0381 199.752 45.7891C200.183 45.5407 200.183 45.1369 199.752 44.8879Z" fill="url(#paint21_linear_253_1499)"/>
<path d="M196.631 46.6897C196.2 46.4407 195.501 46.4407 195.07 46.6897C194.638 46.9387 194.638 47.3419 195.07 47.5909C195.5 47.8399 196.199 47.8399 196.631 47.5909C197.062 47.3425 197.062 46.9387 196.631 46.6897Z" fill="#263238"/>
<path d="M193.508 48.4924C193.078 48.2434 192.379 48.2434 191.947 48.4924C191.516 48.7414 191.516 49.1446 191.947 49.3936C192.378 49.6426 193.077 49.6426 193.508 49.3936C193.94 49.1452 193.94 48.7414 193.508 48.4924Z" fill="url(#paint22_linear_253_1499)"/>
<path d="M190.386 50.2951C189.955 50.0461 189.256 50.0461 188.825 50.2951C188.394 50.5441 188.394 50.9474 188.825 51.1964C189.256 51.4454 189.955 51.4454 190.386 51.1964C190.818 50.948 190.818 50.5441 190.386 50.2951Z" fill="#263238"/>
<path d="M197.411 43.5354C196.98 43.2864 196.281 43.2864 195.849 43.5354C195.419 43.7844 195.419 44.1876 195.849 44.4366C196.28 44.6856 196.979 44.6856 197.411 44.4366C197.842 44.1876 197.842 43.7844 197.411 43.5354Z" fill="#263238"/>
<path d="M194.289 45.3381C193.858 45.0891 193.159 45.0891 192.727 45.3381C192.297 45.5871 192.297 45.9903 192.727 46.2393C193.158 46.4883 193.857 46.4883 194.289 46.2393C194.72 45.9903 194.72 45.5871 194.289 45.3381Z" fill="url(#paint23_linear_253_1499)"/>
<path d="M191.167 47.1409C190.736 46.8919 190.038 46.8919 189.606 47.1409C189.176 47.3899 189.176 47.7931 189.606 48.0421C190.037 48.2911 190.736 48.2911 191.167 48.0421C191.599 47.7937 191.599 47.3899 191.167 47.1409Z" fill="#263238"/>
<path d="M189.588 53.4133C189.158 53.1643 188.459 53.1643 188.027 53.4133C187.596 53.6623 187.596 54.0655 188.027 54.3145C188.458 54.5635 189.157 54.5635 189.588 54.3145C190.019 54.0661 190.019 53.6623 189.588 53.4133Z" fill="url(#paint24_linear_253_1499)"/>
<path d="M187.248 52.0608C186.817 51.8118 186.118 51.8118 185.686 52.0608C185.256 52.3098 185.256 52.713 185.686 52.962C186.118 53.211 186.816 53.211 187.248 52.962C187.678 52.713 187.678 52.3098 187.248 52.0608Z" fill="#263238"/>
<path d="M188.045 48.9446C187.615 48.6956 186.916 48.6956 186.484 48.9446C186.053 49.1936 186.053 49.5968 186.484 49.8458C186.916 50.0948 187.614 50.0948 188.045 49.8458C188.476 49.5968 188.476 49.193 188.045 48.9446Z" fill="#263238"/>
<path d="M195.07 42.1858C194.639 41.9368 193.94 41.9368 193.509 42.1858C193.078 42.4348 193.078 42.838 193.509 43.087C193.94 43.336 194.638 43.336 195.07 43.087C195.501 42.838 195.501 42.4342 195.07 42.1858Z" fill="url(#paint25_linear_253_1499)"/>
<path d="M191.948 43.9875C191.517 43.7385 190.818 43.7385 190.387 43.9875C189.956 44.2365 189.956 44.6397 190.387 44.8887C190.817 45.1377 191.516 45.1377 191.948 44.8887C192.379 44.6403 192.379 44.2365 191.948 43.9875Z" fill="#263238"/>
<path d="M188.826 45.7903C188.395 45.5413 187.696 45.5413 187.265 45.7903C186.834 46.0393 186.834 46.4425 187.265 46.6915C187.696 46.9405 188.395 46.9405 188.826 46.6915C189.257 46.4431 189.257 46.0393 188.826 45.7903Z" fill="url(#paint26_linear_253_1499)"/>
<path d="M185.704 47.593C185.273 47.344 184.574 47.344 184.143 47.593C183.711 47.842 183.711 48.2452 184.143 48.4942C184.574 48.7432 185.273 48.7432 185.704 48.4942C186.135 48.2452 186.135 47.8414 185.704 47.593Z" fill="#263238"/>
<path d="M184.906 50.7112C184.475 50.4622 183.776 50.4622 183.345 50.7112C182.914 50.9602 182.914 51.3634 183.345 51.6124C183.775 51.8614 184.474 51.8614 184.906 51.6124C185.337 51.3634 185.337 50.9596 184.906 50.7112Z" fill="url(#paint27_linear_253_1499)"/>
<path d="M182.564 49.3596C182.133 49.1106 181.435 49.1106 181.003 49.3596C180.572 49.6086 180.572 50.0118 181.003 50.2608C181.434 50.5098 182.133 50.5098 182.564 50.2608C182.996 50.0118 182.996 49.608 182.564 49.3596Z" fill="#263238"/>
<path d="M188.212 57.037V59.4352C188.463 59.44 188.72 59.3944 188.914 59.2816L206.315 49.234C206.684 49.024 206.981 48.5062 206.981 48.0808V47.215C206.981 46.8412 206.75 46.3954 206.438 46.1494C206.678 46.3594 206.637 46.6462 206.315 46.831L188.914 56.8786C188.72 56.9908 188.463 57.0424 188.212 57.037Z" fill="#37474F"/>
<path d="M191.734 38.3202L191.719 38.2992C191.551 38.0718 191.215 38.0022 190.97 38.1432L175.828 46.8858C175.583 47.0274 175.521 47.3256 175.69 47.553L175.706 47.574C175.875 47.8008 176.21 47.8698 176.456 47.7288L191.594 38.988C191.84 38.847 191.902 38.5482 191.734 38.3202Z" fill="#263238"/>
<path d="M191.734 38.3202L191.719 38.2992C191.551 38.0718 191.215 38.0022 190.971 38.1432L179.713 44.6436L180.341 45.486L191.595 38.9886C191.84 38.847 191.902 38.5482 191.734 38.3202Z" fill="url(#paint28_linear_253_1499)"/>
<path d="M190.483 36.6408L190.467 36.6198C190.299 36.3924 189.964 36.3222 189.719 36.4638L174.577 45.2064C174.332 45.348 174.27 45.6468 174.439 45.8736L174.455 45.8946C174.624 46.1214 174.96 46.1904 175.205 46.0494L190.343 37.3086C190.588 37.1676 190.651 36.8682 190.483 36.6408Z" fill="#263238"/>
<path d="M190.483 36.6408L190.467 36.6198C190.299 36.3924 189.964 36.3222 189.719 36.4638L185.955 38.6358L186.583 39.4788L190.343 37.3086C190.588 37.1676 190.651 36.8682 190.483 36.6408Z" fill="url(#paint29_linear_253_1499)"/>
<path d="M189.231 34.9609L189.215 34.9399C189.047 34.7125 188.712 34.6429 188.467 34.7839L173.325 43.5265C173.08 43.6681 173.018 43.9669 173.187 44.1937L173.203 44.2147C173.372 44.4415 173.707 44.5105 173.953 44.3695L189.091 35.6287C189.337 35.4877 189.399 35.1883 189.231 34.9609Z" fill="#263238"/>
<path d="M189.231 34.9603L189.215 34.9393C189.047 34.7119 188.712 34.6417 188.466 34.7827L180.579 39.3223L181.207 40.1647L189.091 35.6275C189.336 35.4865 189.399 35.1877 189.231 34.9603Z" fill="url(#paint30_linear_253_1499)"/>
<path d="M187.979 33.2805L187.963 33.2595C187.795 33.0321 187.46 32.9619 187.215 33.1035L172.073 41.8461C171.828 41.9877 171.766 42.2859 171.935 42.5133L171.951 42.5343C172.12 42.7611 172.456 42.8301 172.701 42.6891L187.839 33.9483C188.084 33.8073 188.147 33.5079 187.979 33.2805Z" fill="#263238"/>
<path d="M187.978 33.2805L187.962 33.2595C187.794 33.0321 187.459 32.9619 187.214 33.1035L173.469 41.0391L174.097 41.8821L187.839 33.9489C188.084 33.8073 188.146 33.5079 187.978 33.2805Z" fill="url(#paint31_linear_253_1499)"/>
<path d="M158.602 145.285C158.675 145.252 158.771 145.262 158.878 145.324C159.11 145.459 159.3 145.787 159.3 146.056C159.3 146.174 159.263 146.261 159.202 146.31C159.202 146.311 159.201 146.311 159.201 146.311L159.15 146.341L141.117 156.751L139.931 156.066L158.602 145.285Z" fill="#455A64"/>
<path d="M161.042 146.692C161.115 146.659 161.211 146.67 161.318 146.731C161.55 146.866 161.74 147.194 161.74 147.463C161.74 147.581 161.703 147.669 161.642 147.718C161.642 147.719 161.64 147.719 161.64 147.719L161.589 147.748L143.556 158.159L142.37 157.474L161.042 146.692Z" fill="#455A64"/>
<path d="M163.477 148.097C163.55 148.065 163.646 148.075 163.753 148.137C163.985 148.271 164.174 148.6 164.174 148.868C164.174 148.986 164.138 149.074 164.077 149.123C164.077 149.124 164.075 149.124 164.075 149.124L164.024 149.153L145.991 159.564L144.805 158.879L163.477 148.097Z" fill="#455A64"/>
<path d="M165.916 149.504C165.989 149.472 166.085 149.483 166.192 149.544C166.424 149.678 166.614 150.007 166.614 150.275C166.614 150.393 166.577 150.481 166.516 150.53C166.516 150.531 166.514 150.531 166.514 150.531L166.463 150.56L148.43 160.971L147.244 160.286L165.916 149.504Z" fill="#455A64"/>
<path d="M42.6221 208.534C42.6221 210.007 43.7243 211.837 45.0839 212.622L114.055 252.443C115.415 253.228 117.618 253.228 118.978 252.443L213.35 197.957C214.709 197.173 215.811 195.343 215.811 193.87C215.811 192.397 214.709 190.567 213.35 189.782L144.378 149.962C143.018 149.177 140.814 149.177 139.455 149.962L45.0839 204.446C43.7243 205.231 42.6221 207.062 42.6221 208.534Z" fill="url(#paint32_linear_253_1499)"/>
<path opacity="0.7" d="M116.518 247.704V253.03C115.625 253.03 114.733 252.837 114.056 252.445L45.0823 212.623C43.7239 211.838 42.6211 210.008 42.6211 208.536C42.6211 207.154 43.5931 205.46 44.8327 204.607C43.7299 205.398 43.8151 206.557 45.0829 207.291L114.056 247.113C114.733 247.505 115.625 247.704 116.518 247.704Z" fill="black"/>
<path d="M40.3133 204.535C39.0383 203.799 38.0045 201.929 38.0045 200.359L38.0039 118.052C38.0039 116.482 39.1061 114.573 40.4657 113.788L134.838 59.303C136.198 58.5182 138.334 58.4786 139.609 59.2148C140.885 59.951 141.919 61.8206 141.919 63.3902V145.698C141.919 147.267 140.816 149.176 139.457 149.961L45.0839 204.447C43.7243 205.231 41.5883 205.271 40.3133 204.535Z" fill="url(#paint33_linear_253_1499)"/>
<path opacity="0.7" d="M44.7927 204.595C43.4343 205.232 41.5011 205.221 40.3131 204.533C39.0399 203.8 38.0049 201.93 38.0049 200.361V118.05C38.0049 117.265 38.2779 116.395 38.7267 115.628L43.3425 118.288V118.294C42.8991 119.067 42.6207 119.931 42.6207 120.715V203.026C42.6213 204.481 43.5705 205.135 44.7927 204.595Z" fill="black"/>
<path opacity="0.5" d="M42.6221 120.718V203.026C42.6221 204.595 43.7243 205.232 45.0839 204.447L139.456 149.962C140.816 149.177 141.918 147.268 141.918 145.698V63.3903C141.918 61.8207 140.816 61.1841 139.456 61.9689L45.0839 116.455C43.7243 117.24 42.6221 119.148 42.6221 120.718Z" fill="black"/>
<path d="M45.0842 207.289L114.056 247.11C115.416 247.895 117.619 247.895 118.979 247.11L213.351 192.624C214.711 191.839 214.711 190.567 213.351 189.782L144.379 149.962C143.02 149.177 140.816 149.177 139.456 149.962L45.0842 204.446C43.7246 205.231 43.7246 206.504 45.0842 207.289Z" fill="url(#paint34_linear_253_1499)"/>
<path opacity="0.3" d="M45.0842 207.289L114.056 247.11C115.416 247.895 117.619 247.895 118.979 247.11L213.351 192.624C214.711 191.839 214.711 190.567 213.351 189.782L144.379 149.962C143.02 149.177 140.816 149.177 139.456 149.962L45.0842 204.446C43.7246 205.231 43.7246 206.504 45.0842 207.289Z" fill="black"/>
<path d="M46.4079 121.023L137.395 68.5055C138.211 68.0345 138.872 68.4161 138.872 69.3581V140.608C138.872 141.55 138.211 142.695 137.395 143.166L46.4079 195.683C45.5925 196.154 44.9307 195.772 44.9307 194.83V123.581C44.9313 122.639 45.5925 121.494 46.4079 121.023Z" fill="#33535F"/>
<path d="M106.438 109.905L105.861 126.356C105.861 133.127 101.604 145.364 92.8491 154.406C92.3325 154.94 91.3071 155.474 90.5679 155.546C90.1269 155.589 89.6997 155.607 89.2803 155.607C87.2109 155.607 85.4283 155.105 83.9295 154.248L83.8755 154.22L83.7717 154.155C79.8591 151.82 77.9403 147.021 77.9403 142.478L77.3631 126.751C77.3487 126.332 77.5245 125.93 77.8077 125.603C78.0231 125.352 78.2991 125.148 78.5967 125.015C82.6029 123.24 88.6101 116.142 91.4289 109.138C91.6299 108.643 91.9347 108.482 92.2683 108.639L92.3187 108.668C92.4189 108.722 92.5197 108.804 92.6199 108.915H92.6235C92.6415 108.933 92.6595 108.955 92.6775 108.977C95.6685 112.459 101.55 112.455 105.477 109.45C105.775 109.224 106.023 109.152 106.191 109.227L106.212 109.242C106.212 109.242 106.209 109.242 106.209 109.245C106.367 109.331 106.452 109.55 106.438 109.905Z" fill="url(#paint35_linear_253_1499)"/>
<path opacity="0.2" d="M91.9011 108.615C91.7169 108.671 91.5525 108.834 91.4289 109.138C88.6101 116.142 82.6029 123.24 78.5967 125.015C78.2991 125.148 78.0231 125.352 77.8077 125.603C77.5245 125.929 77.3487 126.331 77.3631 126.751L77.9403 142.477C77.9403 147.021 79.8591 151.819 83.7717 154.154L83.8755 154.219L83.9295 154.248C85.4283 155.105 87.2109 155.607 89.2803 155.607C89.6997 155.607 90.1269 155.589 90.5679 155.546C90.9705 155.507 91.4565 155.328 91.9005 155.089L91.9011 108.615Z" fill="black"/>
<path opacity="0.3" d="M53.0899 205.157L140.688 154.583C141.368 154.191 142.47 154.191 143.15 154.583L147.63 157.17C148.31 157.562 148.31 158.198 147.63 158.591L60.0187 209.158C59.3389 209.55 58.2367 209.55 57.5569 209.158L53.0899 206.579C52.4101 206.186 52.4101 205.55 53.0899 205.157Z" fill="black"/>
<path opacity="0.3" d="M64.637 211.824L152.234 161.249C152.914 160.857 154.016 160.857 154.696 161.249L182.254 177.161C182.934 177.553 182.934 178.189 182.254 178.582L94.7564 229.087C94.0766 229.479 92.9738 229.481 92.2928 229.09L64.6394 213.241C63.9584 212.851 63.9572 212.216 64.637 211.824Z" fill="black"/>
<path d="M143.159 184.003L145.901 182.42C146.018 182.353 146.011 182.24 145.886 182.168L142.714 180.336C142.589 180.264 142.393 180.26 142.277 180.327L139.534 181.911C139.418 181.978 139.425 182.091 139.55 182.163L142.721 183.995C142.846 184.067 143.042 184.07 143.159 184.003ZM137.746 177.711L135.004 179.295C134.887 179.362 134.894 179.475 135.019 179.547L138.191 181.378C138.316 181.451 138.512 181.455 138.628 181.388L141.371 179.804C141.487 179.737 141.481 179.624 141.355 179.552L138.184 177.72C138.059 177.648 137.863 177.644 137.746 177.711ZM128.885 182.828L124.244 185.507C124.127 185.574 124.134 185.688 124.259 185.76L127.431 187.591C127.556 187.663 127.752 187.667 127.868 187.6L132.51 184.92C132.626 184.853 132.62 184.74 132.494 184.668L129.323 182.836C129.198 182.764 129.002 182.76 128.885 182.828ZM133.738 180.025L130.995 181.61C130.879 181.677 130.886 181.79 131.011 181.862L134.182 183.693C134.307 183.766 134.503 183.77 134.62 183.702L137.362 182.119C137.479 182.052 137.472 181.938 137.347 181.866L134.175 180.036C134.05 179.962 133.854 179.958 133.738 180.025ZM122.978 186.238L120.236 187.821C120.119 187.889 120.126 188.002 120.251 188.074L123.423 189.905C123.548 189.977 123.744 189.981 123.86 189.914L126.603 188.331C126.719 188.264 126.712 188.151 126.587 188.078L123.416 186.247C123.29 186.174 123.095 186.171 122.978 186.238ZM118.97 188.552L116.227 190.135C116.111 190.203 116.118 190.316 116.243 190.388L119.414 192.219C119.54 192.291 119.735 192.295 119.852 192.228L122.594 190.644C122.711 190.577 122.704 190.464 122.579 190.392L119.408 188.561C119.282 188.489 119.086 188.485 118.97 188.552ZM131.444 195.998L134.187 194.415C134.303 194.347 134.297 194.234 134.171 194.162L131 192.331C130.875 192.259 130.679 192.255 130.563 192.322L127.82 193.905C127.704 193.972 127.711 194.086 127.835 194.158L131.007 195.989C131.132 196.061 131.328 196.065 131.444 195.998ZM127.436 198.312L130.178 196.729C130.295 196.662 130.288 196.548 130.163 196.476L126.992 194.646C126.866 194.574 126.671 194.57 126.554 194.637L123.812 196.22C123.695 196.287 123.702 196.401 123.827 196.473L126.999 198.304C127.123 198.375 127.319 198.379 127.436 198.312ZM123.427 200.627L126.17 199.043C126.286 198.976 126.28 198.863 126.154 198.79L122.983 196.959C122.858 196.887 122.662 196.883 122.546 196.95L119.803 198.534C119.687 198.601 119.693 198.714 119.819 198.786L122.99 200.618C123.115 200.69 123.311 200.694 123.427 200.627ZM119.419 202.941L122.161 201.357C122.278 201.29 122.27 201.177 122.146 201.105L118.975 199.274C118.849 199.202 118.654 199.198 118.537 199.265L115.795 200.849C115.678 200.916 115.685 201.029 115.81 201.101L118.981 202.932C119.106 203.004 119.302 203.009 119.419 202.941ZM139.15 186.318L141.893 184.734C142.009 184.667 142.002 184.554 141.877 184.482L138.706 182.65C138.581 182.578 138.385 182.574 138.268 182.642L135.526 184.225C135.409 184.292 135.416 184.406 135.541 184.478L138.712 186.309C138.838 186.381 139.034 186.385 139.15 186.318ZM135.453 193.684L141.571 190.152C141.688 190.085 141.68 189.971 141.556 189.899L133.854 185.453C133.729 185.381 133.533 185.376 133.417 185.443L130.252 187.271C130.136 187.338 130.142 187.451 130.267 187.523L134.345 189.878C134.47 189.95 134.477 190.063 134.36 190.13L131.829 191.592C131.713 191.659 131.719 191.772 131.845 191.844L135.016 193.675C135.14 193.747 135.337 193.751 135.453 193.684ZM114.961 190.866L112.219 192.45C112.102 192.518 112.109 192.631 112.234 192.703L115.405 194.534C115.531 194.606 115.726 194.61 115.843 194.543L118.585 192.96C118.702 192.892 118.695 192.779 118.57 192.707L115.399 190.876C115.273 190.803 115.078 190.799 114.961 190.866ZM110.953 193.181L108.21 194.764C108.094 194.832 108.1 194.945 108.226 195.017L111.397 196.848C111.522 196.92 111.718 196.925 111.834 196.857L114.577 195.274C114.693 195.207 114.686 195.093 114.561 195.021L111.389 193.19C111.265 193.118 111.069 193.114 110.953 193.181ZM90.9216 219.132C91.0464 219.204 91.2426 219.208 91.359 219.141L94.1016 217.558C94.218 217.491 94.2108 217.377 94.086 217.305L90.9144 215.475C90.789 215.403 90.5934 215.399 90.477 215.466L87.7344 217.049C87.618 217.116 87.6252 217.23 87.75 217.302L90.9216 219.132ZM78.8844 211.695L76.1418 213.279C76.0254 213.346 76.032 213.459 76.1574 213.531L79.3284 215.362C79.4538 215.435 79.6494 215.439 79.7658 215.371L82.5084 213.788C82.6248 213.72 82.6176 213.607 82.4928 213.535L79.3212 211.704C79.1964 211.632 79.0008 211.628 78.8844 211.695ZM85.3362 217.125C85.4616 217.197 85.6572 217.202 85.7736 217.134L88.5162 215.551C88.6326 215.484 88.6254 215.37 88.5006 215.298L85.3296 213.467C85.2042 213.395 85.0086 213.391 84.8922 213.458L82.1496 215.042C82.0332 215.109 82.0398 215.222 82.1652 215.294L85.3362 217.125ZM97.9992 220.539L100.742 218.955C100.858 218.888 100.852 218.775 100.726 218.703L97.5546 216.872C97.4292 216.8 97.2336 216.795 97.1166 216.863L94.374 218.447C94.2576 218.514 94.2648 218.627 94.3896 218.699L97.5606 220.53C97.6866 220.602 97.8828 220.607 97.9992 220.539ZM93.5532 222.845C93.678 222.917 93.8742 222.921 93.9906 222.854L96.7332 221.27C96.8496 221.203 96.8424 221.09 96.7176 221.018L93.546 219.186C93.4206 219.114 93.225 219.11 93.1086 219.177L90.366 220.761C90.2496 220.829 90.2562 220.941 90.3816 221.014L93.5532 222.845ZM82.893 209.381L80.1504 210.965C80.034 211.032 80.0412 211.145 80.166 211.217L83.3376 213.048C83.463 213.12 83.6586 213.125 83.775 213.057L86.5176 211.474C86.634 211.407 86.6274 211.294 86.502 211.221L83.331 209.39C83.205 209.318 83.0094 209.314 82.893 209.381ZM102.935 197.81L100.193 199.393C100.076 199.46 100.084 199.574 100.208 199.646L103.379 201.477C103.505 201.549 103.7 201.553 103.817 201.486L106.559 199.902C106.676 199.835 106.669 199.722 106.544 199.65L103.372 197.818C103.247 197.746 103.052 197.742 102.935 197.81ZM86.9016 207.067L84.159 208.65C84.0426 208.718 84.0498 208.831 84.1746 208.903L87.3462 210.734C87.4716 210.806 87.6672 210.811 87.7836 210.743L90.5262 209.16C90.6426 209.093 90.6354 208.979 90.5106 208.907L87.3396 207.076C87.2136 207.003 87.018 207 86.9016 207.067ZM106.944 195.495L104.201 197.078C104.085 197.145 104.092 197.259 104.217 197.331L107.388 199.162C107.513 199.234 107.709 199.239 107.825 199.171L110.568 197.588C110.684 197.52 110.678 197.407 110.552 197.335L107.381 195.504C107.256 195.432 107.06 195.428 106.944 195.495ZM98.9268 200.124L96.1842 201.707C96.0678 201.774 96.0744 201.888 96.1998 201.96L99.3714 203.79C99.4962 203.863 99.6924 203.867 99.8088 203.799L102.551 202.216C102.668 202.149 102.661 202.035 102.536 201.963L99.3642 200.133C99.2394 200.061 99.0432 200.057 98.9268 200.124ZM94.9182 202.438L92.1756 204.021C92.0592 204.089 92.0658 204.202 92.1912 204.274L95.3628 206.105C95.4876 206.177 95.6838 206.181 95.8002 206.114L98.5428 204.531C98.6592 204.464 98.652 204.35 98.5272 204.278L95.3562 202.447C95.2308 202.375 95.0346 202.371 94.9182 202.438ZM90.9102 204.753L88.1676 206.336C88.0512 206.403 88.0578 206.517 88.1826 206.589L91.3542 208.42C91.4796 208.492 91.6752 208.496 91.7916 208.429L94.5342 206.846C94.6506 206.778 94.6434 206.665 94.5186 206.593L91.3476 204.762C91.2222 204.689 91.0266 204.686 90.9102 204.753ZM111.401 207.57L114.144 205.986C114.26 205.919 114.254 205.806 114.128 205.734L110.957 203.903C110.831 203.831 110.636 203.826 110.519 203.893L107.777 205.477C107.66 205.544 107.668 205.657 107.792 205.729L110.963 207.561C111.089 207.633 111.285 207.637 111.401 207.57ZM146.608 172.596L143.865 174.179C143.749 174.246 143.756 174.359 143.881 174.432L147.052 176.263C147.178 176.335 147.373 176.339 147.49 176.272L150.232 174.689C150.349 174.621 150.341 174.508 150.217 174.436L147.045 172.605C146.92 172.532 146.724 172.528 146.608 172.596ZM141.755 175.397L139.012 176.981C138.896 177.048 138.903 177.161 139.028 177.233L142.199 179.064C142.324 179.136 142.52 179.14 142.636 179.073L145.379 177.49C145.495 177.423 145.488 177.309 145.363 177.237L142.192 175.406C142.067 175.333 141.871 175.33 141.755 175.397ZM150.616 170.282L147.873 171.865C147.757 171.932 147.763 172.046 147.889 172.118L151.06 173.948C151.185 174.02 151.381 174.024 151.498 173.957L154.24 172.374C154.357 172.307 154.35 172.193 154.225 172.121L151.054 170.29C150.928 170.218 150.733 170.214 150.616 170.282ZM129.868 191.677L132.61 190.093C132.727 190.026 132.72 189.913 132.595 189.841L129.424 188.01C129.298 187.938 129.103 187.934 128.986 188.001L126.244 189.584C126.127 189.651 126.134 189.764 126.259 189.837L129.431 191.668C129.555 191.74 129.751 191.744 129.868 191.677ZM155.062 167.976C154.937 167.904 154.741 167.9 154.624 167.967L151.882 169.55C151.765 169.617 151.772 169.731 151.897 169.803L155.069 171.634C155.194 171.707 155.39 171.71 155.506 171.643L158.249 170.06C158.365 169.992 158.359 169.879 158.233 169.807L155.062 167.976ZM115.41 205.256L118.153 203.672C118.269 203.605 118.262 203.492 118.137 203.42L114.966 201.588C114.841 201.516 114.645 201.512 114.529 201.579L111.786 203.163C111.67 203.231 111.677 203.344 111.802 203.416L114.973 205.247C115.097 205.319 115.294 205.323 115.41 205.256ZM164.567 176.874L167.31 175.291C167.426 175.224 167.419 175.11 167.294 175.038L164.123 173.208C163.997 173.135 163.802 173.132 163.685 173.199L160.943 174.782C160.826 174.849 160.833 174.963 160.958 175.035L164.13 176.865C164.255 176.937 164.451 176.942 164.567 176.874ZM156.028 176.573L158.771 174.99C158.887 174.922 158.88 174.81 158.755 174.737L155.584 172.906C155.459 172.834 155.263 172.83 155.146 172.897L152.404 174.48C152.287 174.548 152.294 174.661 152.419 174.733L155.591 176.564C155.716 176.636 155.912 176.64 156.028 176.573ZM159.592 170.592C159.467 170.519 159.271 170.515 159.155 170.583L156.412 172.167C156.296 172.234 156.303 172.347 156.428 172.419L159.599 174.25C159.724 174.322 159.92 174.327 160.037 174.26L162.779 172.676C162.896 172.609 162.889 172.496 162.764 172.424L159.592 170.592ZM160.436 170.104L168.138 174.551C168.263 174.623 168.459 174.627 168.575 174.56L171.318 172.977C171.434 172.91 171.428 172.796 171.302 172.724L163.6 168.278C163.475 168.206 163.279 168.201 163.163 168.268L160.42 169.852C160.304 169.919 160.311 170.032 160.436 170.104ZM151.138 175.211L148.395 176.795C148.279 176.862 148.285 176.975 148.411 177.047L151.582 178.878C151.708 178.95 151.903 178.955 152.02 178.887L154.762 177.303C154.879 177.236 154.872 177.123 154.747 177.051L151.576 175.22C151.45 175.148 151.254 175.144 151.138 175.211ZM120.968 192.629L118.226 194.213C118.109 194.28 118.116 194.394 118.241 194.466L121.412 196.297C121.538 196.369 121.733 196.373 121.85 196.306L124.592 194.722C124.709 194.655 124.702 194.542 124.577 194.47L121.406 192.639C121.281 192.566 121.085 192.562 120.968 192.629ZM160.121 179.179C160.246 179.251 160.442 179.256 160.559 179.189L163.301 177.605C163.418 177.538 163.411 177.425 163.286 177.353L160.114 175.521C159.989 175.449 159.793 175.445 159.677 175.512L156.934 177.096C156.818 177.164 156.824 177.277 156.95 177.349L160.121 179.179ZM124.977 190.315L122.234 191.899C122.118 191.966 122.125 192.08 122.25 192.152L125.421 193.983C125.546 194.055 125.742 194.059 125.858 193.992L128.601 192.408C128.717 192.341 128.711 192.228 128.585 192.156L125.414 190.325C125.29 190.252 125.093 190.248 124.977 190.315ZM94.9302 216.818C95.0556 216.89 95.2512 216.894 95.3676 216.827L98.1102 215.244C98.2266 215.177 98.2194 215.063 98.0946 214.991L94.923 213.16C94.7982 213.088 94.602 213.084 94.4856 213.151L91.743 214.734C91.6266 214.802 91.6338 214.915 91.7586 214.987L94.9302 216.818ZM88.9002 211.144L86.1576 212.727C86.0412 212.795 86.0484 212.908 86.1732 212.98L89.3448 214.811C89.4702 214.883 89.6658 214.887 89.7822 214.82L92.5248 213.237C92.6412 213.17 92.6346 213.056 92.5092 212.984L89.3382 211.153C89.2128 211.081 89.0166 211.077 88.9002 211.144ZM99.3756 214.512L102.118 212.929C102.235 212.862 102.228 212.748 102.103 212.676L98.9316 210.846C98.8068 210.774 98.6106 210.769 98.4942 210.837L95.7516 212.42C95.6352 212.487 95.6424 212.601 95.7672 212.673L98.9388 214.503C99.0636 214.576 99.2592 214.58 99.3756 214.512ZM103.384 212.199L106.127 210.615C106.243 210.548 106.237 210.435 106.112 210.363L102.94 208.532C102.815 208.46 102.619 208.455 102.503 208.522L99.7602 210.106C99.6438 210.173 99.6504 210.286 99.7758 210.358L102.947 212.19C103.072 212.262 103.268 212.265 103.384 212.199ZM107.393 209.884L110.135 208.3C110.252 208.233 110.245 208.12 110.12 208.048L106.948 206.217C106.823 206.145 106.627 206.14 106.511 206.208L103.768 207.792C103.652 207.859 103.658 207.972 103.784 208.044L106.955 209.875C107.081 209.947 107.276 209.951 107.393 209.884ZM92.9088 208.83L90.1662 210.413C90.0498 210.48 90.057 210.594 90.1812 210.666L93.3528 212.496C93.4776 212.569 93.6738 212.572 93.7902 212.505L96.5328 210.922C96.6492 210.855 96.6426 210.741 96.5172 210.669L93.3456 208.839C93.2214 208.767 93.0252 208.763 92.9088 208.83ZM96.9174 206.515L94.1748 208.099C94.0584 208.166 94.065 208.28 94.1904 208.352L97.362 210.183C97.4874 210.255 97.683 210.259 97.7994 210.192L100.542 208.608C100.658 208.541 100.651 208.428 100.526 208.356L97.3554 206.525C97.2294 206.453 97.0338 206.448 96.9174 206.515ZM112.951 197.258L110.209 198.842C110.092 198.909 110.099 199.022 110.224 199.094L113.396 200.925C113.521 200.997 113.717 201.001 113.833 200.934L116.576 199.35C116.692 199.283 116.686 199.17 116.561 199.098L113.389 197.267C113.264 197.195 113.068 197.191 112.951 197.258ZM108.943 199.572L106.2 201.156C106.084 201.223 106.09 201.336 106.216 201.408L109.387 203.24C109.513 203.312 109.708 203.316 109.825 203.249L112.567 201.665C112.684 201.598 112.677 201.485 112.552 201.413L109.38 199.581C109.255 199.509 109.06 199.505 108.943 199.572ZM116.96 194.944L114.217 196.527C114.101 196.595 114.108 196.708 114.233 196.78L117.404 198.611C117.529 198.683 117.725 198.687 117.841 198.62L120.584 197.037C120.7 196.97 120.693 196.857 120.568 196.784L117.397 194.953C117.272 194.881 117.076 194.877 116.96 194.944ZM100.926 204.201L98.1834 205.785C98.067 205.852 98.0736 205.965 98.199 206.037L101.371 207.868C101.495 207.94 101.692 207.945 101.808 207.878L104.551 206.294C104.667 206.227 104.66 206.114 104.535 206.042L101.363 204.211C101.238 204.138 101.042 204.134 100.926 204.201ZM104.934 201.887L102.191 203.471C102.075 203.538 102.082 203.651 102.207 203.723L105.379 205.554C105.503 205.626 105.7 205.631 105.816 205.563L108.559 203.979C108.675 203.912 108.668 203.799 108.543 203.727L105.371 201.896C105.247 201.824 105.051 201.82 104.934 201.887ZM102.008 218.225L104.75 216.641C104.867 216.574 104.86 216.461 104.735 216.389L101.563 214.557C101.438 214.485 101.242 214.481 101.126 214.548L98.3832 216.132C98.2668 216.199 98.2734 216.312 98.3988 216.384L101.57 218.215C101.695 218.287 101.891 218.292 102.008 218.225ZM78.4848 215.85L75.3132 214.018C75.1878 213.946 74.9922 213.942 74.8758 214.01L72.1332 215.593C72.0168 215.66 72.0234 215.773 72.1488 215.846L75.3198 217.677C75.4452 217.749 75.6408 217.753 75.7572 217.686L78.4998 216.102C78.6168 216.035 78.6096 215.922 78.4848 215.85ZM84.492 217.613L81.3204 215.783C81.1956 215.71 80.9994 215.706 80.883 215.774L76.6632 218.21C76.5468 218.277 76.554 218.39 76.6788 218.462L79.8504 220.293C79.9758 220.365 80.1714 220.37 80.2878 220.302L84.507 217.866C84.624 217.798 84.6168 217.685 84.492 217.613ZM73.6188 212.31L70.4478 210.479C70.3224 210.407 70.1268 210.402 70.0104 210.47L66.6348 212.419C66.5184 212.486 66.525 212.6 66.6504 212.672L69.8214 214.503C69.9468 214.575 70.1424 214.579 70.2588 214.512L73.6344 212.563C73.7514 212.495 73.7442 212.382 73.6188 212.31ZM76.2072 210.816C76.332 210.888 76.5282 210.892 76.6446 210.825L79.3872 209.241C79.5036 209.174 79.497 209.061 79.3716 208.988L76.2 207.158C76.0752 207.085 75.879 207.081 75.7626 207.149L73.02 208.732C72.903 208.799 72.9102 208.913 73.035 208.985L76.2072 210.816ZM90.0774 219.62L86.9064 217.788C86.781 217.716 86.5854 217.712 86.469 217.78L81.1944 220.825C81.078 220.892 81.0852 221.006 81.21 221.078L84.381 222.909C84.5064 222.981 84.702 222.985 84.8184 222.918L90.093 219.873C90.2094 219.805 90.2028 219.692 90.0774 219.62ZM92.7096 223.331L89.538 221.5C89.4132 221.429 89.217 221.424 89.1006 221.492L85.725 223.44C85.6086 223.507 85.6152 223.621 85.7406 223.693L88.9122 225.524C89.037 225.596 89.2332 225.6 89.3496 225.533L92.7252 223.584C92.8416 223.517 92.8344 223.404 92.7096 223.331ZM106.011 193.608C106.136 193.68 106.332 193.685 106.448 193.617L109.191 192.034C109.307 191.967 109.301 191.854 109.175 191.781L106.004 189.95C105.879 189.878 105.683 189.874 105.566 189.941L102.824 191.525C102.707 191.592 102.714 191.705 102.839 191.777L106.011 193.608ZM97.9938 198.237C98.1192 198.31 98.3148 198.314 98.4312 198.246L101.174 196.663C101.29 196.596 101.283 196.483 101.158 196.41L97.9872 194.579C97.8624 194.507 97.6662 194.503 97.5498 194.57L94.8072 196.153C94.6908 196.221 94.698 196.334 94.8222 196.406L97.9938 198.237ZM80.2152 208.501C80.3406 208.573 80.5362 208.578 80.6526 208.51L83.3952 206.927C83.5116 206.859 83.505 206.746 83.3796 206.674L80.208 204.843C80.0832 204.771 79.887 204.767 79.7706 204.834L77.028 206.417C76.9116 206.484 76.9182 206.598 77.0436 206.67L80.2152 208.501ZM102.002 195.922C102.128 195.995 102.323 195.999 102.44 195.932L105.182 194.348C105.299 194.281 105.292 194.168 105.167 194.096L101.996 192.264C101.87 192.192 101.675 192.188 101.558 192.255L98.8158 193.839C98.6994 193.906 98.706 194.019 98.8314 194.091L102.002 195.922ZM93.9852 200.552C94.1106 200.624 94.3062 200.628 94.4226 200.56L97.1652 198.977C97.2816 198.909 97.275 198.796 97.1496 198.724L93.9786 196.893C93.8532 196.821 93.6576 196.817 93.5412 196.884L90.7986 198.468C90.6822 198.535 90.6894 198.648 90.8142 198.72L93.9852 200.552ZM94.9128 223.629C94.7874 223.557 94.5918 223.553 94.4754 223.62L90.2556 226.056C90.1392 226.124 90.1458 226.237 90.2712 226.309L93.4428 228.14C93.5682 228.212 93.7638 228.216 93.8802 228.149L98.0994 225.713C98.2158 225.645 98.2086 225.532 98.0838 225.46L94.9128 223.629ZM88.2324 203.872C88.3578 203.944 88.5534 203.949 88.6698 203.882L91.4124 202.298C91.5288 202.231 91.5216 202.118 91.3968 202.046L88.2258 200.214C88.1004 200.142 87.9048 200.138 87.7884 200.205L85.0458 201.789C84.9294 201.856 84.9366 201.969 85.0614 202.041L88.2324 203.872ZM84.2238 206.187C84.3492 206.259 84.5448 206.263 84.6612 206.196L87.4038 204.612C87.5202 204.545 87.5136 204.432 87.3882 204.36L84.2166 202.529C84.0912 202.456 83.8956 202.452 83.7792 202.52L81.0366 204.103C80.9202 204.17 80.9274 204.284 81.0522 204.356L84.2238 206.187ZM169.175 180.753C169.05 180.681 168.854 180.677 168.738 180.744L161.987 184.642C161.87 184.709 161.877 184.823 162.002 184.895L165.174 186.725C165.299 186.797 165.495 186.801 165.611 186.734L172.363 182.836C172.479 182.769 172.472 182.656 172.347 182.584L169.175 180.753ZM160.315 185.869C160.189 185.797 159.994 185.793 159.877 185.86L157.135 187.443C157.018 187.51 157.025 187.624 157.15 187.696L160.321 189.527C160.447 189.599 160.642 189.603 160.759 189.535L163.501 187.952C163.618 187.885 163.61 187.772 163.486 187.7L160.315 185.869ZM106.016 215.91L108.759 214.327C108.875 214.26 108.868 214.146 108.743 214.074L105.572 212.243C105.446 212.171 105.251 212.167 105.134 212.234L102.392 213.818C102.275 213.885 102.282 213.997 102.407 214.07L105.578 215.901C105.704 215.973 105.9 215.978 106.016 215.91ZM152.297 190.497C152.172 190.425 151.976 190.421 151.86 190.488L149.117 192.072C149.001 192.139 149.008 192.252 149.133 192.324L152.304 194.156C152.429 194.228 152.625 194.232 152.741 194.164L155.484 192.581C155.6 192.514 155.594 192.4 155.468 192.328L152.297 190.497ZM173.184 178.439C173.059 178.366 172.863 178.362 172.747 178.429L170.004 180.013C169.888 180.08 169.895 180.193 170.02 180.265L173.191 182.097C173.316 182.169 173.512 182.173 173.628 182.106L176.371 180.522C176.487 180.455 176.48 180.342 176.355 180.27L173.184 178.439ZM180.364 177.956L172.662 173.508C172.537 173.436 172.341 173.432 172.225 173.499L169.482 175.083C169.366 175.15 169.372 175.263 169.498 175.335L177.2 179.782C177.325 179.854 177.521 179.859 177.637 179.792L180.38 178.207C180.496 178.141 180.489 178.028 180.364 177.956ZM137.318 199.146C137.194 199.073 136.997 199.07 136.881 199.137L133.505 201.085C133.389 201.153 133.396 201.266 133.521 201.338L136.693 203.169C136.818 203.241 137.014 203.245 137.13 203.178L140.506 201.229C140.622 201.162 140.615 201.048 140.49 200.976L137.318 199.146ZM147.445 193.299C147.32 193.227 147.124 193.223 147.008 193.29L142.788 195.726C142.672 195.793 142.679 195.906 142.804 195.979L145.975 197.81C146.1 197.882 146.296 197.886 146.413 197.819L150.632 195.383C150.749 195.316 150.742 195.203 150.617 195.131L147.445 193.299ZM128.036 204.506C127.91 204.434 127.715 204.429 127.598 204.497L105.024 217.53C104.908 217.597 104.914 217.71 105.04 217.782L108.211 219.614C108.336 219.686 108.532 219.69 108.649 219.622L131.223 206.589C131.339 206.522 131.333 206.409 131.207 206.337L128.036 204.506ZM104.195 218.27C104.07 218.198 103.874 218.193 103.758 218.261L100.382 220.209C100.266 220.277 100.273 220.39 100.398 220.462L103.569 222.293C103.694 222.365 103.89 222.369 104.006 222.302L107.382 220.353C107.498 220.286 107.491 220.173 107.366 220.1L104.195 218.27ZM132.677 201.825C132.552 201.753 132.356 201.749 132.239 201.816L128.864 203.765C128.747 203.832 128.754 203.946 128.879 204.018L132.051 205.848C132.176 205.921 132.372 205.925 132.488 205.858L135.864 203.908C135.98 203.841 135.974 203.729 135.848 203.656L132.677 201.825ZM99.5538 220.949C99.429 220.877 99.2328 220.873 99.1164 220.94L95.7408 222.889C95.6244 222.956 95.6316 223.07 95.7564 223.142L98.9274 224.973C99.0528 225.045 99.2484 225.049 99.3648 224.982L102.74 223.033C102.857 222.966 102.85 222.852 102.725 222.78L99.5538 220.949ZM141.96 196.466C141.835 196.393 141.639 196.389 141.523 196.457L138.147 198.406C138.031 198.473 138.038 198.586 138.163 198.658L141.334 200.49C141.459 200.562 141.655 200.566 141.772 200.499L145.147 198.55C145.264 198.483 145.256 198.369 145.132 198.297L141.96 196.466ZM156.306 188.183C156.181 188.111 155.985 188.107 155.869 188.174L153.126 189.757C153.01 189.825 153.017 189.938 153.142 190.01L156.313 191.841C156.438 191.913 156.634 191.918 156.751 191.85L159.493 190.267C159.61 190.2 159.602 190.086 159.478 190.014L156.306 188.183ZM165.089 181.804L167.832 180.221C167.948 180.154 167.942 180.04 167.817 179.968L164.645 178.138C164.521 178.066 164.324 178.062 164.208 178.129L161.465 179.712C161.349 179.779 161.356 179.893 161.481 179.965L164.653 181.796C164.777 181.868 164.973 181.872 165.089 181.804ZM147.167 181.689L149.91 180.105C150.026 180.038 150.02 179.925 149.895 179.853L146.723 178.022C146.599 177.95 146.402 177.945 146.286 178.013L143.543 179.596C143.426 179.664 143.434 179.777 143.559 179.849L146.73 181.68C146.855 181.752 147.05 181.756 147.167 181.689ZM138.085 197.396L146.102 192.767C146.218 192.699 146.211 192.586 146.086 192.514L142.915 190.683C142.79 190.611 142.594 190.607 142.478 190.674L134.461 195.302C134.344 195.369 134.351 195.483 134.476 195.555L137.648 197.385C137.772 197.459 137.968 197.463 138.085 197.396ZM160.643 184.11C160.768 184.182 160.964 184.186 161.081 184.119L163.823 182.535C163.94 182.468 163.933 182.355 163.808 182.283L160.636 180.452C160.511 180.38 160.315 180.375 160.199 180.443L157.456 182.026C157.339 182.093 157.346 182.206 157.471 182.278L160.643 184.11ZM156.55 181.503L159.293 179.919C159.409 179.852 159.402 179.739 159.277 179.667L156.106 177.836C155.98 177.763 155.785 177.759 155.668 177.827L152.926 179.41C152.809 179.477 152.816 179.591 152.941 179.663L156.113 181.494C156.238 181.566 156.434 181.571 156.55 181.503ZM134.076 199.71L136.819 198.127C136.935 198.06 136.928 197.947 136.803 197.874L133.632 196.043C133.507 195.971 133.311 195.967 133.195 196.034L130.452 197.618C130.336 197.685 130.343 197.797 130.468 197.87L133.639 199.701C133.763 199.773 133.96 199.778 134.076 199.71ZM151.783 189.226C151.908 189.298 152.104 189.302 152.22 189.235L154.963 187.652C155.079 187.584 155.072 187.471 154.947 187.399L151.775 185.568C151.65 185.495 151.454 185.492 151.338 185.559L148.595 187.142C148.479 187.209 148.486 187.323 148.611 187.395L151.783 189.226ZM114.034 211.282L116.776 209.699C116.893 209.631 116.885 209.518 116.761 209.446L113.589 207.615C113.464 207.542 113.268 207.539 113.152 207.606L110.409 209.189C110.293 209.256 110.3 209.369 110.424 209.442L113.596 211.273C113.721 211.345 113.917 211.349 114.034 211.282ZM118.042 208.967L120.785 207.384C120.901 207.317 120.894 207.203 120.769 207.131L117.598 205.3C117.473 205.228 117.277 205.224 117.16 205.292L114.418 206.875C114.301 206.942 114.308 207.056 114.433 207.128L117.605 208.958C117.73 209.031 117.925 209.035 118.042 208.967ZM110.025 213.596L112.768 212.013C112.884 211.946 112.877 211.832 112.752 211.76L109.58 209.929C109.455 209.857 109.259 209.853 109.143 209.921L106.4 211.504C106.284 211.571 106.291 211.685 106.416 211.757L109.588 213.588C109.712 213.659 109.908 213.663 110.025 213.596ZM126.059 204.339L128.801 202.755C128.918 202.688 128.911 202.575 128.786 202.503L125.614 200.671C125.489 200.599 125.293 200.595 125.177 200.663L122.434 202.246C122.318 202.313 122.324 202.426 122.45 202.499L125.621 204.33C125.746 204.402 125.942 204.406 126.059 204.339ZM122.05 206.653L124.793 205.07C124.909 205.002 124.903 204.889 124.777 204.817L121.606 202.986C121.481 202.914 121.285 202.91 121.168 202.977L118.426 204.56C118.309 204.627 118.316 204.741 118.441 204.813L121.613 206.644C121.738 206.716 121.934 206.72 122.05 206.653ZM130.067 202.025L132.81 200.441C132.926 200.374 132.919 200.261 132.794 200.189L129.623 198.358C129.497 198.286 129.302 198.281 129.185 198.349L126.443 199.932C126.326 200 126.334 200.113 126.458 200.185L129.629 202.016C129.755 202.087 129.951 202.092 130.067 202.025ZM148.406 167.787C148.532 167.859 148.727 167.864 148.844 167.796L151.586 166.213C151.703 166.146 151.696 166.033 151.571 165.96L150.727 165.472C150.601 165.4 150.406 165.396 150.289 165.464L147.546 167.047C147.43 167.114 147.437 167.227 147.562 167.3L148.406 167.787ZM128.684 180.518C128.809 180.59 129.005 180.595 129.121 180.527L131.864 178.944C131.98 178.877 131.974 178.763 131.848 178.691L128.677 176.861C128.552 176.788 128.356 176.784 128.24 176.851L125.497 178.434C125.381 178.502 125.387 178.615 125.512 178.687L128.684 180.518ZM136.701 175.89C136.826 175.962 137.022 175.966 137.138 175.899L139.881 174.315C139.997 174.248 139.99 174.135 139.865 174.063L136.694 172.232C136.568 172.16 136.373 172.155 136.256 172.222L133.514 173.806C133.397 173.873 133.405 173.986 133.529 174.058L136.701 175.89ZM123.789 183.344C123.914 183.416 124.11 183.42 124.226 183.353L126.969 181.77C127.085 181.703 127.078 181.589 126.953 181.517L123.782 179.686C123.657 179.614 123.461 179.61 123.345 179.678L120.602 181.261C120.486 181.328 120.493 181.442 120.618 181.514L123.789 183.344ZM132.692 178.204C132.817 178.276 133.013 178.28 133.13 178.213L135.872 176.629C135.989 176.562 135.982 176.449 135.857 176.377L132.685 174.546C132.56 174.473 132.364 174.47 132.248 174.537L129.505 176.12C129.389 176.187 129.395 176.301 129.521 176.373L132.692 178.204ZM115.772 187.973C115.897 188.045 116.093 188.049 116.209 187.982L118.952 186.398C119.068 186.331 119.062 186.218 118.937 186.146L115.765 184.315C115.64 184.242 115.444 184.239 115.328 184.306L112.585 185.889C112.469 185.957 112.476 186.07 112.601 186.142L115.772 187.973ZM119.78 185.658C119.906 185.73 120.101 185.735 120.218 185.667L122.96 184.084C123.077 184.017 123.07 183.904 122.945 183.831L119.773 182C119.648 181.928 119.452 181.924 119.336 181.991L116.593 183.575C116.477 183.642 116.484 183.755 116.609 183.827L119.78 185.658ZM140.389 172.416C140.515 172.488 140.71 172.493 140.827 172.425L143.569 170.842C143.686 170.775 143.678 170.662 143.554 170.589L142.709 170.102C142.585 170.03 142.388 170.026 142.272 170.093L139.529 171.677C139.413 171.744 139.42 171.857 139.545 171.93L140.389 172.416ZM152.415 165.473C152.54 165.545 152.736 165.549 152.852 165.482L155.595 163.899C155.711 163.832 155.704 163.718 155.579 163.646L154.735 163.158C154.61 163.086 154.414 163.082 154.298 163.15L151.555 164.733C151.439 164.8 151.445 164.914 151.571 164.986L152.415 165.473ZM159.077 169.32C159.202 169.392 159.398 169.396 159.514 169.329L162.257 167.745C162.373 167.678 162.366 167.565 162.241 167.493L159.07 165.661C158.945 165.589 158.749 165.585 158.632 165.653L155.89 167.236C155.773 167.303 155.78 167.417 155.905 167.489L159.077 169.32ZM169.098 179.49L171.841 177.906C171.957 177.839 171.95 177.726 171.826 177.654L168.654 175.822C168.529 175.75 168.333 175.746 168.217 175.814L165.474 177.397C165.358 177.464 165.365 177.578 165.49 177.65L168.661 179.481C168.785 179.553 168.981 179.557 169.098 179.49ZM144.398 170.102C144.523 170.174 144.719 170.178 144.835 170.111L147.578 168.527C147.694 168.46 147.687 168.347 147.562 168.275L146.718 167.787C146.593 167.715 146.397 167.711 146.281 167.778L143.538 169.362C143.422 169.429 143.429 169.542 143.554 169.614L144.398 170.102ZM111.763 190.287C111.889 190.359 112.084 190.364 112.201 190.296L114.943 188.713C115.06 188.646 115.053 188.532 114.928 188.46L111.756 186.629C111.631 186.557 111.435 186.553 111.319 186.62L108.576 188.203C108.46 188.271 108.467 188.383 108.592 188.456L111.763 190.287Z" fill="#263238"/>
<path opacity="0.3" d="M129.54 214.348L156.606 198.721C157.421 198.25 158.744 198.25 159.559 198.721L175.08 207.682C175.895 208.153 175.895 208.916 175.08 209.387L148.014 225.013C147.198 225.484 145.876 225.484 145.06 225.013L129.541 216.053C128.725 215.583 128.725 214.819 129.54 214.348Z" fill="black"/>
<path d="M40.3125 204.531C40.5399 204.662 40.7955 204.77 41.0685 204.855C40.7955 204.775 40.5399 204.667 40.3125 204.536C40.2327 204.491 40.1535 204.44 40.0791 204.383C40.1529 204.434 40.2327 204.485 40.3125 204.531Z" fill="url(#paint36_linear_253_1499)"/>
<path opacity="0.3" d="M141.894 62.9902C141.718 61.717 140.695 61.2508 139.455 61.9672L45.0818 116.456C44.3996 116.849 43.7912 117.513 43.3424 118.287L38.7266 115.626C39.17 114.859 39.7838 114.182 40.466 113.79L134.839 59.3014C136.198 58.5172 138.336 58.477 139.609 59.2162C140.774 59.8864 141.741 61.5124 141.894 62.9902Z" fill="black"/>
<path d="M44.6211 204.764C44.6325 204.747 44.6439 204.741 44.6607 204.729C44.6493 204.741 44.6379 204.746 44.6325 204.758C44.6271 204.764 44.6271 204.764 44.6211 204.764Z" fill="url(#paint37_linear_253_1499)"/>
<path opacity="0.5" d="M215.814 193.872C215.814 195.344 214.711 197.175 213.352 197.959L118.979 252.442C118.303 252.834 117.41 253.021 116.518 253.021V247.701C117.41 247.701 118.303 247.501 118.979 247.11L213.352 192.627C214.62 191.887 214.705 190.734 213.602 189.943C214.842 190.796 215.814 192.49 215.814 193.872Z" fill="black"/>
<path d="M276.219 147.217C276.221 147.215 276.222 147.213 276.224 147.212L265.192 140.854C265.192 140.854 265.191 140.859 265.191 140.861C264.951 140.728 264.594 140.817 264.161 141.148C263.937 141.32 263.708 141.484 263.475 141.641C263.392 141.698 263.306 141.749 263.222 141.803C263.071 141.901 262.921 142 262.767 142.092C262.66 142.156 262.55 142.214 262.442 142.275C262.308 142.351 262.175 142.428 262.038 142.499C261.915 142.563 261.789 142.623 261.665 142.684C261.542 142.745 261.419 142.806 261.294 142.863C261.157 142.926 261.018 142.983 260.879 143.042C260.765 143.09 260.651 143.139 260.535 143.185C260.385 143.244 260.234 143.297 260.084 143.351C259.978 143.389 259.872 143.428 259.766 143.463C259.604 143.517 259.44 143.566 259.277 143.615C259.181 143.643 259.085 143.672 258.989 143.699C258.815 143.747 258.641 143.79 258.466 143.831C258.38 143.852 258.293 143.873 258.207 143.892C258.022 143.932 257.837 143.969 257.651 144.002C257.575 144.015 257.499 144.029 257.423 144.042C257.227 144.074 257.031 144.102 256.835 144.126C256.77 144.134 256.705 144.143 256.64 144.15C256.434 144.173 256.227 144.191 256.022 144.206C255.967 144.209 255.913 144.213 255.858 144.216C255.643 144.228 255.428 144.236 255.213 144.239C255.169 144.24 255.126 144.24 255.083 144.24C254.858 144.241 254.634 144.237 254.411 144.228C254.379 144.227 254.347 144.225 254.315 144.224C254.082 144.212 253.851 144.195 253.621 144.173C253.599 144.17 253.577 144.168 253.555 144.165C253.316 144.14 253.079 144.11 252.843 144.072C252.831 144.07 252.82 144.068 252.809 144.066C252.607 144.033 252.537 144.017 252.479 143.997L245.637 140.054V140.055C245.133 139.769 244.669 139.977 244.373 140.711C240.401 150.576 231.938 160.577 226.296 163.077C226.187 163.126 226.08 163.183 225.975 163.245C225.906 163.286 225.841 163.334 225.775 163.38C225.746 163.401 225.715 163.419 225.686 163.442C225.601 163.506 225.521 163.575 225.442 163.647C225.437 163.652 225.431 163.657 225.426 163.662C225.341 163.74 225.263 163.823 225.188 163.91L225.187 163.911C224.793 164.369 224.537 164.932 224.559 165.521L225.371 175.542C225.371 182.003 228.122 188.82 233.73 192.08L233.732 192.081L233.733 192.082L244.758 198.436L244.759 198.437L244.836 198.482L244.836 198.479C247.372 199.931 250.485 200.661 254.189 200.308C255.23 200.208 256.675 199.455 257.403 198.704C269.735 185.965 275.731 168.725 275.731 159.188L276.546 148.149C276.561 147.649 276.439 147.34 276.219 147.217Z" fill="url(#paint38_linear_253_1499)"/>
<path opacity="0.4" d="M256.581 146.36C256.333 146.244 256.091 146.26 255.884 146.396C255.844 146.421 255.803 146.452 255.763 146.487C255.697 146.548 255.637 146.623 255.576 146.709C255.571 146.714 255.565 146.724 255.561 146.734C255.505 146.83 255.45 146.936 255.399 147.062C254.409 149.528 253.135 152.003 251.69 154.368C250.427 156.445 249.033 158.435 247.588 160.264C246.87 161.164 246.148 162.022 245.421 162.83C245.416 162.841 245.41 162.851 245.4 162.856C245.193 163.083 244.991 163.305 244.789 163.522C244.783 163.527 244.779 163.537 244.768 163.547C244.561 163.76 244.359 163.972 244.157 164.179C244.056 164.29 243.955 164.396 243.844 164.502C241.53 166.826 239.262 168.569 237.321 169.428C236.993 169.574 236.685 169.781 236.427 170.034C236.352 170.105 236.281 170.176 236.21 170.257V170.261C236.195 170.282 236.179 170.297 236.164 170.317C236.175 170.297 236.19 170.282 236.205 170.261L225.19 163.91C225.201 163.895 225.211 163.885 225.226 163.87C225.246 163.84 225.271 163.81 225.301 163.78C225.322 163.759 225.342 163.739 225.367 163.719C225.382 163.699 225.402 163.684 225.423 163.663C225.443 163.643 225.463 163.623 225.488 163.603C225.493 163.598 225.498 163.592 225.503 163.592C225.564 163.537 225.619 163.486 225.68 163.441C225.711 163.42 225.741 163.4 225.771 163.38C225.836 163.334 225.902 163.284 225.973 163.244C226.074 163.183 226.185 163.123 226.291 163.077C231.935 160.576 240.397 150.572 244.368 140.711C244.581 140.185 244.878 139.928 245.212 139.928C245.349 139.928 245.49 139.973 245.631 140.054L252.477 143.995L256.581 146.36Z" fill="white"/>
<path opacity="0.1" d="M276.221 147.214C276.221 147.214 276.221 147.214 276.225 147.21L265.191 140.854V140.859C264.949 140.727 264.595 140.818 264.161 141.147C263.939 141.318 263.706 141.485 263.474 141.642C263.393 141.697 263.307 141.748 263.221 141.804C263.069 141.9 262.923 142.001 262.766 142.092C262.66 142.157 262.549 142.213 262.443 142.279C262.307 142.35 262.175 142.431 262.038 142.501C261.917 142.566 261.791 142.622 261.665 142.683C261.543 142.743 261.417 142.809 261.296 142.864C261.154 142.925 261.018 142.986 260.876 143.041C260.765 143.092 260.649 143.143 260.532 143.188C260.386 143.244 260.234 143.299 260.083 143.35C259.977 143.39 259.871 143.431 259.765 143.466C259.603 143.517 259.442 143.568 259.275 143.618C259.179 143.643 259.083 143.674 258.987 143.699C258.815 143.749 258.638 143.79 258.467 143.83C258.381 143.851 258.295 143.876 258.209 143.891C258.021 143.931 257.835 143.972 257.653 144.002C257.572 144.017 257.496 144.032 257.421 144.042C257.229 144.078 257.032 144.103 256.835 144.128C256.769 144.133 256.703 144.143 256.638 144.153C256.431 144.174 256.229 144.193 256.022 144.209C255.966 144.209 255.911 144.214 255.86 144.219C255.643 144.229 255.426 144.24 255.213 144.24H255.082C254.855 144.244 254.633 144.24 254.41 144.229C254.38 144.229 254.345 144.225 254.314 144.225C254.082 144.214 253.849 144.194 253.622 144.174C253.596 144.169 253.576 144.169 253.556 144.164C253.314 144.139 253.076 144.108 252.844 144.073C252.829 144.073 252.819 144.068 252.809 144.068C252.612 144.033 252.541 144.018 252.48 143.997L256.583 146.362L256.655 146.4C256.797 146.475 256.926 146.61 257.068 146.766H257.073C257.098 146.791 257.123 146.822 257.148 146.852C261.362 151.758 269.653 151.753 275.19 147.519C275.609 147.201 275.958 147.099 276.195 147.205L276.226 147.226C276.226 147.226 276.221 147.226 276.221 147.231C276.327 147.286 276.408 147.382 276.459 147.519C276.407 147.376 276.321 147.275 276.221 147.214Z" fill="black"/>
<path opacity="0.2" d="M244.611 198.349L233.732 192.082H233.728C228.124 188.819 225.369 182.003 225.369 175.542L224.558 165.522C224.531 164.76 224.956 164.036 225.562 163.54C225.43 163.654 225.301 163.779 225.187 163.911L236.21 170.262C235.812 170.72 235.562 171.288 235.585 171.876L236.395 181.896C236.396 188.3 239.101 195.056 244.611 198.349Z" fill="black"/>
<path d="M276.547 148.146L275.729 159.186C275.729 168.724 269.732 185.962 257.404 198.705C256.671 199.458 255.231 200.21 254.186 200.306C250.482 200.659 247.37 199.932 244.834 198.477V198.483L244.758 198.437L244.612 198.351C239.1 195.057 236.397 188.302 236.397 181.896L235.583 171.877C235.563 171.291 235.811 170.725 236.205 170.266L236.21 170.261C236.281 170.18 236.352 170.109 236.427 170.039C236.685 169.786 236.993 169.579 237.321 169.433C239.261 168.574 241.53 166.831 243.844 164.507C243.955 164.401 244.056 164.295 244.157 164.184C244.359 163.977 244.562 163.764 244.769 163.552C244.779 163.542 244.784 163.532 244.789 163.527C244.991 163.31 245.193 163.087 245.4 162.86C245.411 162.855 245.415 162.845 245.421 162.835C246.149 162.027 246.871 161.167 247.588 160.269C249.033 158.44 250.427 156.449 251.69 154.372C253.135 152.008 254.408 149.532 255.399 147.067C255.449 146.94 255.505 146.835 255.561 146.739C255.566 146.728 255.571 146.718 255.576 146.713C255.636 146.628 255.697 146.551 255.763 146.491C255.803 146.455 255.844 146.425 255.884 146.4C256.091 146.263 256.334 146.248 256.581 146.364L256.657 146.4C256.799 146.475 256.925 146.612 257.066 146.769H257.071C257.096 146.794 257.121 146.824 257.147 146.854C261.36 151.76 269.651 151.755 275.188 147.522C275.607 147.204 275.956 147.102 276.194 147.208L276.224 147.229C276.224 147.229 276.219 147.229 276.219 147.234C276.275 147.259 276.315 147.294 276.356 147.35C276.486 147.504 276.562 147.772 276.547 148.146Z" fill="url(#paint39_linear_253_1499)"/>
<path d="M259.266 184.354L252.7 188.145L253.717 176.267C252.932 175.852 252.432 174.83 252.432 173.363C252.432 170.748 254.022 167.71 255.984 166.577C257.944 165.445 259.535 166.648 259.535 169.262C259.535 170.729 259.035 172.33 258.249 173.651L259.266 184.354Z" fill="#455A64"/>
<path d="M259.266 184.353L253.318 180.92L252.699 188.144L259.266 184.353Z" fill="#37474F"/>
<path d="M255.984 166.577C254.7 167.318 253.579 168.875 252.955 170.596L258.249 173.653V173.651C259.035 172.329 259.535 170.729 259.535 169.262C259.535 166.646 257.945 165.444 255.984 166.577Z" fill="#37474F"/>
<path d="M264.242 119.213C262.419 118.16 260.124 118.278 257.948 119.534L240.699 129.496C237.213 131.509 234.584 136.062 234.584 140.087V161.218C234.584 161.668 234.884 162.117 235.479 162.461C236.668 163.147 238.596 163.147 239.785 162.461C240.38 162.118 240.68 161.668 240.68 161.218V140.087C240.68 138.234 242.142 135.703 243.747 134.776L260.996 124.814C261.002 124.81 261.009 124.807 261.015 124.803C261.015 124.81 261.015 124.817 261.015 124.825V145.955C261.015 146.405 261.315 146.855 261.909 147.198C263.098 147.884 265.027 147.884 266.216 147.198C266.811 146.855 267.111 146.405 267.111 145.955V124.825C267.111 122.311 266.065 120.265 264.242 119.213Z" fill="#37474F"/>
<path d="M261.015 124.825V145.955C261.015 146.405 261.315 146.855 261.909 147.198C262.176 147.353 262.481 147.47 262.806 147.555V123.77L261.015 124.803C261.015 124.811 261.015 124.818 261.015 124.825Z" fill="#263238"/>
<defs>
<linearGradient id="paint0_linear_253_1499" x1="275.842" y1="121.822" x2="214.103" y2="327.545" gradientUnits="userSpaceOnUse">
<stop stop-color="#33F497"/>
<stop offset="1" stop-color="#09A5B4"/>
</linearGradient>
<linearGradient id="paint1_linear_253_1499" x1="263.4" y1="204.894" x2="257.756" y2="223.7" gradientUnits="userSpaceOnUse">
<stop stop-color="#33F497"/>
<stop offset="1" stop-color="#09A5B4"/>
</linearGradient>
<linearGradient id="paint2_linear_253_1499" x1="217.388" y1="64.9531" x2="211.051" y2="84.8797" gradientUnits="userSpaceOnUse">
<stop stop-color="#33F497"/>
<stop offset="1" stop-color="#09A5B4"/>
</linearGradient>
<linearGradient id="paint3_linear_253_1499" x1="217.389" y1="69.7598" x2="213.003" y2="81.8354" gradientUnits="userSpaceOnUse">
<stop stop-color="#33F497"/>
<stop offset="1" stop-color="#09A5B4"/>
</linearGradient>
<linearGradient id="paint4_linear_253_1499" x1="217.388" y1="81.7754" x2="211.051" y2="101.702" gradientUnits="userSpaceOnUse">
<stop stop-color="#33F497"/>
<stop offset="1" stop-color="#09A5B4"/>
</linearGradient>
<linearGradient id="paint5_linear_253_1499" x1="217.388" y1="86.582" x2="211.61" y2="103.694" gradientUnits="userSpaceOnUse">
<stop stop-color="#33F497"/>
<stop offset="1" stop-color="#09A5B4"/>
</linearGradient>
<linearGradient id="paint6_linear_253_1499" x1="217.387" y1="98.5977" x2="211.05" y2="118.524" gradientUnits="userSpaceOnUse">
<stop stop-color="#33F497"/>
<stop offset="1" stop-color="#09A5B4"/>
</linearGradient>
<linearGradient id="paint7_linear_253_1499" x1="217.387" y1="103.405" x2="213.906" y2="112.079" gradientUnits="userSpaceOnUse">
<stop stop-color="#33F497"/>
<stop offset="1" stop-color="#09A5B4"/>
</linearGradient>
<linearGradient id="paint8_linear_253_1499" x1="217.388" y1="115.422" x2="211.051" y2="135.349" gradientUnits="userSpaceOnUse">
<stop stop-color="#33F497"/>
<stop offset="1" stop-color="#09A5B4"/>
</linearGradient>
<linearGradient id="paint9_linear_253_1499" x1="217.389" y1="120.229" x2="213.003" y2="132.304" gradientUnits="userSpaceOnUse">
<stop stop-color="#33F497"/>
<stop offset="1" stop-color="#09A5B4"/>
</linearGradient>
<linearGradient id="paint10_linear_253_1499" x1="217.388" y1="132.245" x2="211.051" y2="152.172" gradientUnits="userSpaceOnUse">
<stop stop-color="#33F497"/>
<stop offset="1" stop-color="#09A5B4"/>
</linearGradient>
<linearGradient id="paint11_linear_253_1499" x1="217.388" y1="137.052" x2="212.076" y2="152.489" gradientUnits="userSpaceOnUse">
<stop stop-color="#33F497"/>
<stop offset="1" stop-color="#09A5B4"/>
</linearGradient>
<linearGradient id="paint12_linear_253_1499" x1="184.087" y1="107.731" x2="177.947" y2="108.639" gradientUnits="userSpaceOnUse">
<stop stop-color="#33F497"/>
<stop offset="1" stop-color="#09A5B4"/>
</linearGradient>
<linearGradient id="paint13_linear_253_1499" x1="177.843" y1="74.5469" x2="171.603" y2="74.9982" gradientUnits="userSpaceOnUse">
<stop stop-color="#33F497"/>
<stop offset="1" stop-color="#09A5B4"/>
</linearGradient>
<linearGradient id="paint14_linear_253_1499" x1="171.6" y1="84.2998" x2="165.38" y2="84.8845" gradientUnits="userSpaceOnUse">
<stop stop-color="#33F497"/>
<stop offset="1" stop-color="#09A5B4"/>
</linearGradient>
<linearGradient id="paint15_linear_253_1499" x1="165.355" y1="113.967" x2="159.839" y2="116.009" gradientUnits="userSpaceOnUse">
<stop stop-color="#33F497"/>
<stop offset="1" stop-color="#09A5B4"/>
</linearGradient>
<linearGradient id="paint16_linear_253_1499" x1="159.111" y1="90.9082" x2="152.951" y2="91.7475" gradientUnits="userSpaceOnUse">
<stop stop-color="#33F497"/>
<stop offset="1" stop-color="#09A5B4"/>
</linearGradient>
<linearGradient id="paint17_linear_253_1499" x1="183.114" y1="135.364" x2="177.55" y2="151.7" gradientUnits="userSpaceOnUse">
<stop stop-color="#33F497"/>
<stop offset="1" stop-color="#09A5B4"/>
</linearGradient>
<linearGradient id="paint18_linear_253_1499" x1="183.115" y1="146.184" x2="179.838" y2="154.051" gradientUnits="userSpaceOnUse">
<stop stop-color="#33F497"/>
<stop offset="1" stop-color="#09A5B4"/>
</linearGradient>
<linearGradient id="paint19_linear_253_1499" x1="202.417" y1="46.0527" x2="201.911" y2="47.8156" gradientUnits="userSpaceOnUse">
<stop stop-color="#33F497"/>
<stop offset="1" stop-color="#09A5B4"/>
</linearGradient>
<linearGradient id="paint20_linear_253_1499" x1="199.295" y1="47.8555" x2="198.79" y2="49.6182" gradientUnits="userSpaceOnUse">
<stop stop-color="#33F497"/>
<stop offset="1" stop-color="#09A5B4"/>
</linearGradient>
<linearGradient id="paint21_linear_253_1499" x1="200.075" y1="44.7012" x2="199.57" y2="46.464" gradientUnits="userSpaceOnUse">
<stop stop-color="#33F497"/>
<stop offset="1" stop-color="#09A5B4"/>
</linearGradient>
<linearGradient id="paint22_linear_253_1499" x1="193.832" y1="48.3057" x2="193.326" y2="50.0685" gradientUnits="userSpaceOnUse">
<stop stop-color="#33F497"/>
<stop offset="1" stop-color="#09A5B4"/>
</linearGradient>
<linearGradient id="paint23_linear_253_1499" x1="194.612" y1="45.1514" x2="194.107" y2="46.9142" gradientUnits="userSpaceOnUse">
<stop stop-color="#33F497"/>
<stop offset="1" stop-color="#09A5B4"/>
</linearGradient>
<linearGradient id="paint24_linear_253_1499" x1="189.912" y1="53.2266" x2="189.406" y2="54.9893" gradientUnits="userSpaceOnUse">
<stop stop-color="#33F497"/>
<stop offset="1" stop-color="#09A5B4"/>
</linearGradient>
<linearGradient id="paint25_linear_253_1499" x1="195.393" y1="41.999" x2="194.887" y2="43.7618" gradientUnits="userSpaceOnUse">
<stop stop-color="#33F497"/>
<stop offset="1" stop-color="#09A5B4"/>
</linearGradient>
<linearGradient id="paint26_linear_253_1499" x1="189.149" y1="45.6035" x2="188.644" y2="47.3663" gradientUnits="userSpaceOnUse">
<stop stop-color="#33F497"/>
<stop offset="1" stop-color="#09A5B4"/>
</linearGradient>
<linearGradient id="paint27_linear_253_1499" x1="185.229" y1="50.5244" x2="184.723" y2="52.2872" gradientUnits="userSpaceOnUse">
<stop stop-color="#33F497"/>
<stop offset="1" stop-color="#09A5B4"/>
</linearGradient>
<linearGradient id="paint28_linear_253_1499" x1="191.829" y1="38.0703" x2="188.741" y2="48.2301" gradientUnits="userSpaceOnUse">
<stop stop-color="#33F497"/>
<stop offset="1" stop-color="#09A5B4"/>
</linearGradient>
<linearGradient id="paint29_linear_253_1499" x1="190.577" y1="36.3906" x2="189.196" y2="40.554" gradientUnits="userSpaceOnUse">
<stop stop-color="#33F497"/>
<stop offset="1" stop-color="#09A5B4"/>
</linearGradient>
<linearGradient id="paint30_linear_253_1499" x1="189.325" y1="34.71" x2="187.018" y2="42.159" gradientUnits="userSpaceOnUse">
<stop stop-color="#33F497"/>
<stop offset="1" stop-color="#09A5B4"/>
</linearGradient>
<linearGradient id="paint31_linear_253_1499" x1="188.072" y1="33.0303" x2="184.416" y2="45.1773" gradientUnits="userSpaceOnUse">
<stop stop-color="#33F497"/>
<stop offset="1" stop-color="#09A5B4"/>
</linearGradient>
<linearGradient id="paint32_linear_253_1499" x1="215.811" y1="149.373" x2="173.442" y2="291.916" gradientUnits="userSpaceOnUse">
<stop stop-color="#33F497"/>
<stop offset="1" stop-color="#09A5B4"/>
</linearGradient>
<linearGradient id="paint33_linear_253_1499" x1="141.919" y1="58.6875" x2="39.0241" y2="205.776" gradientUnits="userSpaceOnUse">
<stop stop-color="#33F497"/>
<stop offset="1" stop-color="#09A5B4"/>
</linearGradient>
<linearGradient id="paint34_linear_253_1499" x1="214.371" y1="149.373" x2="175.383" y2="285.351" gradientUnits="userSpaceOnUse">
<stop stop-color="#33F497"/>
<stop offset="1" stop-color="#09A5B4"/>
</linearGradient>
<linearGradient id="paint35_linear_253_1499" x1="106.439" y1="108.581" x2="72.0779" y2="151.363" gradientUnits="userSpaceOnUse">
<stop stop-color="#33F497"/>
<stop offset="1" stop-color="#09A5B4"/>
</linearGradient>
<linearGradient id="paint36_linear_253_1499" x1="41.0685" y1="204.383" x2="40.9099" y2="205.052" gradientUnits="userSpaceOnUse">
<stop stop-color="#33F497"/>
<stop offset="1" stop-color="#09A5B4"/>
</linearGradient>
<linearGradient id="paint37_linear_253_1499" x1="44.6607" y1="204.729" x2="44.6421" y2="204.773" gradientUnits="userSpaceOnUse">
<stop stop-color="#33F497"/>
<stop offset="1" stop-color="#09A5B4"/>
</linearGradient>
<linearGradient id="paint38_linear_253_1499" x1="276.547" y1="139.932" x2="237.355" y2="207.788" gradientUnits="userSpaceOnUse">
<stop stop-color="#33F497"/>
<stop offset="1" stop-color="#09A5B4"/>
</linearGradient>
<linearGradient id="paint39_linear_253_1499" x1="276.549" y1="146.286" x2="239.411" y2="202.906" gradientUnits="userSpaceOnUse">
<stop stop-color="#33F497"/>
<stop offset="1" stop-color="#09A5B4"/>
</linearGradient>
</defs>
</svg>
