<?xml version="1.0" encoding="UTF-8"?>
<svg id="Layer_2" data-name="Layer 2" xmlns="http://www.w3.org/2000/svg" xmlns:xlink="http://www.w3.org/1999/xlink" viewBox="0 0 219.02 53.81">
  <defs>
    <style>
      .cls-1 {
        fill: url(#linear-gradient-12);
      }

      .cls-1, .cls-2, .cls-3, .cls-4, .cls-5, .cls-6, .cls-7, .cls-8, .cls-9, .cls-10, .cls-11, .cls-12, .cls-13, .cls-14, .cls-15, .cls-16, .cls-17, .cls-18, .cls-19, .cls-20 {
        stroke-width: 0px;
      }

      .cls-2 {
        fill: url(#linear-gradient);
      }

      .cls-3 {
        fill: #000;
      }

      .cls-4 {
        fill: #072c50;
      }

      .cls-5 {
        fill: url(#linear-gradient-6);
      }

      .cls-6 {
        fill: url(#linear-gradient-15);
      }

      .cls-7 {
        fill: url(#linear-gradient-11);
      }

      .cls-8 {
        fill: url(#linear-gradient-5);
      }

      .cls-9 {
        fill: url(#linear-gradient-13);
      }

      .cls-10 {
        fill: url(#linear-gradient-16);
      }

      .cls-11 {
        fill: url(#linear-gradient-14);
      }

      .cls-12 {
        fill: url(#linear-gradient-2);
      }

      .cls-13 {
        fill: url(#linear-gradient-7);
      }

      .cls-14 {
        fill: url(#linear-gradient-3);
      }

      .cls-15 {
        fill: url(#linear-gradient-9);
      }

      .cls-16 {
        fill: #33f498;
      }

      .cls-17 {
        fill: url(#linear-gradient-8);
      }

      .cls-18 {
        fill: #fff;
      }

      .cls-19 {
        fill: url(#linear-gradient-10);
      }

      .cls-20 {
        fill: url(#linear-gradient-4);
      }
    </style>
    <linearGradient id="linear-gradient" x1="33.17" y1="11.45" x2="24.18" y2="31.54" gradientTransform="translate(0 42) scale(1 -1)" gradientUnits="userSpaceOnUse">
      <stop offset="0" stop-color="#23dae6"/>
      <stop offset="1" stop-color="#028fbc"/>
    </linearGradient>
    <linearGradient id="linear-gradient-2" x1="34.28" y1="21.31" x2="36.29" y2="3.62" gradientTransform="translate(0 42) scale(1 -1)" gradientUnits="userSpaceOnUse">
      <stop offset="0" stop-color="#05447d"/>
      <stop offset="1" stop-color="#40b3d8"/>
    </linearGradient>
    <linearGradient id="linear-gradient-3" x1="30.75" y1="14.69" x2="30.25" y2="-5.03" gradientTransform="translate(0 42) scale(1 -1)" gradientUnits="userSpaceOnUse">
      <stop offset="0" stop-color="#05447d"/>
      <stop offset="1" stop-color="#40d8d8"/>
    </linearGradient>
    <linearGradient id="linear-gradient-4" x1="12.35" y1="25.88" x2="9.16" y2="33.44" gradientTransform="translate(0 42) scale(1 -1)" gradientUnits="userSpaceOnUse">
      <stop offset="0" stop-color="#23dae6"/>
      <stop offset="1" stop-color="#33f498"/>
    </linearGradient>
    <linearGradient id="linear-gradient-5" x1="8.78" y1="22.84" x2="3.65" y2="28.91" xlink:href="#linear-gradient-4"/>
    <linearGradient id="linear-gradient-6" x1="29.3" y1="-18.08" x2="22.37" y2="12.09" gradientTransform="translate(0 42) scale(1 -1)" gradientUnits="userSpaceOnUse">
      <stop offset="0" stop-color="#33f498"/>
      <stop offset="1" stop-color="#0492b0"/>
    </linearGradient>
    <linearGradient id="linear-gradient-7" x1="24.24" y1="27.47" x2="24.24" y2="-.8" gradientTransform="translate(0 42) scale(1 -1)" gradientUnits="userSpaceOnUse">
      <stop offset="0" stop-color="#05e278"/>
      <stop offset=".48" stop-color="#64ff8f"/>
      <stop offset="1" stop-color="#0eaacb"/>
    </linearGradient>
    <linearGradient id="linear-gradient-8" x1="10.2" y1="24.67" x2="2.84" y2="36" xlink:href="#linear-gradient-4"/>
    <linearGradient id="linear-gradient-9" x1="16.57" y1="26.87" x2="16.87" y2="34.65" xlink:href="#linear-gradient-4"/>
    <linearGradient id="linear-gradient-10" x1="20.93" y1="25.91" x2="24.36" y2="33.13" xlink:href="#linear-gradient-4"/>
    <linearGradient id="linear-gradient-11" x1="23.91" y1="23.41" x2="30.56" y2="27.03" xlink:href="#linear-gradient-4"/>
    <linearGradient id="linear-gradient-12" x1="15.08" y1="26.22" x2="11.68" y2="39.84" xlink:href="#linear-gradient-4"/>
    <linearGradient id="linear-gradient-13" x1="18.56" y1="25.18" x2="21.9" y2="39.84" xlink:href="#linear-gradient-4"/>
    <linearGradient id="linear-gradient-14" x1="22.21" y1="23.66" x2="31.67" y2="34.44" xlink:href="#linear-gradient-4"/>
    <linearGradient id="linear-gradient-15" x1="24.23" y1="20.81" x2="37.05" y2="25.29" xlink:href="#linear-gradient-4"/>
    <linearGradient id="linear-gradient-16" x1="14.94" y1="25.22" x2="14.94" y2="-11.81" gradientTransform="translate(0 42) scale(1 -1)" gradientUnits="userSpaceOnUse">
      <stop offset=".45" stop-color="#05447d"/>
      <stop offset="1" stop-color="#40b3d8"/>
    </linearGradient>
  </defs>
  <g id="Layer_1-2" data-name="Layer 1">
    <path class="cls-2" d="M31.63,15.57c-3.98-2.78-10.35-1.79-13.04-.94,9.47,0,13.32,4.85,14.07,7.27,1.11.99,3.7,2,4.86,2.38-.3-1.75-1.91-5.93-5.89-8.71Z"/>
    <path class="cls-12" d="M34.84,38.53c4.66-9,.65-14.91-1.94-16.75l.65,5.5c.28.91.79,3.03.53,4.18-.26,1.15.4,5.19.77,7.06Z"/>
    <path class="cls-14" d="M33.25,38.38c2.71-3.49,1.42-10.32.44-13.3-1.38,2.91-4.6,9.68-6.39,13.45-2.24,4.71-.69,8.36-.71,8.51.32-2.74,3.27-4.3,6.65-8.65Z"/>
    <path class="cls-4" d="M7.9,8.01c1.37,2.52,4.12,7.58,4.1,7.65l-1.18.1-2.92-7.75Z"/>
    <path class="cls-20" d="M7.9,8.02c1.36,2.53,4.03,7.61,4.1,7.64l.78-.95-4.89-6.68Z"/>
    <path class="cls-4" d="M2.14,13.14c2.18,1.87,6.55,5.62,6.55,5.69l-1.07.51-5.48-6.21Z"/>
    <path class="cls-8" d="M2.14,13.16c2.17,1.88,6.47,5.68,6.55,5.68l.39-1.17-6.95-4.51Z"/>
    <path class="cls-5" d="M20.09,47.63c.59-3.32,5.39-6.84,7.71-8.18,4.47-3.93,4.93-10.25,4.59-12.92l-5.18-1.21c-.71,1.82-2.41,5.75-3.59,6.83-1.47,1.35-8.45,1.88-8.77,9.77-.26,6.31,3.58,10.62,5.47,11.89-.42-.62-.82-2.86-.24-6.18Z"/>
    <path class="cls-13" d="M32.63,21.07c-2.59-6.4-10.73-6.93-14.48-6.39,5.27.73,6.77,5.51,6.95,7.83,0,3.74-2.65,8.68-7.06,11.92-4.32,3.17-3.85,6.75-3.18,8.36.45-1.53,2.24-5.04,5.77-6.83,3.53-1.79,5.28-5.57,5.71-7.24.41,6.48-2.67,9.09-2.5,9.04,5.21-1.59,7.19-7.41,7.39-9.39-.14,1.46.88,3.36,1.41,4.12,1.08-1.14,2.59-5.02,0-11.42Z"/>
    <path class="cls-4" d="M0,5.83c3.6,3.86,10.82,11.61,10.81,11.75l-2.06.72L0,5.83Z"/>
    <path class="cls-17" d="M0,5.86c3.58,3.88,10.67,11.71,10.81,11.72l.96-2.06L0,5.86Z"/>
    <path class="cls-4" d="M16.08,6.3c.09,2.87.26,8.62.21,8.68l-1.1-.44.89-8.23Z"/>
    <path class="cls-15" d="M16.07,6.31c.07,2.87.17,8.61.22,8.67l1.13-.5-1.35-8.17Z"/>
    <path class="cls-4" d="M24.45,7.71c-1.26,2.58-3.79,7.75-3.86,7.77l-.76-.91,4.63-6.87Z"/>
    <path class="cls-19" d="M24.43,7.72c-1.27,2.57-3.87,7.69-3.85,7.77l1.23.09,2.62-7.86Z"/>
    <path class="cls-4" d="M31.03,13.73c-2.4,1.57-7.22,4.72-7.29,4.7l-.19-1.17,7.49-3.54Z"/>
    <path class="cls-7" d="M31.01,13.72c-2.41,1.56-7.26,4.63-7.28,4.71l1.01.7,6.27-5.41Z"/>
    <path class="cls-4" d="M10.03.59c1.43,5.07,4.3,15.27,4.23,15.39l-2.16-.3L10.03.59Z"/>
    <path class="cls-1" d="M10.02.61c1.41,5.08,4.13,15.3,4.25,15.37l1.8-1.39L10.02.61Z"/>
    <path class="cls-4" d="M20.79,0c-.78,5.22-2.35,15.69-2.46,15.77l-1.84-1.16L20.79,0Z"/>
    <path class="cls-9" d="M20.77.02c-.81,5.21-2.52,15.64-2.44,15.76l2.21-.53L20.77.02Z"/>
    <path class="cls-4" d="M32.12,5.36c-3.41,4.02-10.28,12.09-10.42,12.1l-.95-1.96,11.37-10.14Z"/>
    <path class="cls-11" d="M32.09,5.36c-3.44,4-10.4,11.95-10.39,12.1l2.15.72,8.23-12.81Z"/>
    <path class="cls-4" d="M38.48,14.92c-4.92,1.88-14.82,5.66-14.95,5.61l.11-2.18,14.84-3.43Z"/>
    <path class="cls-6" d="M38.46,14.91c-4.93,1.86-14.86,5.49-14.92,5.62l1.54,1.66,13.38-7.28Z"/>
    <path class="cls-10" d="M5.67,25.58c-.45,2,.27,4.02.65,4.71,1.7-2.5,5.09-3.87,6.59-4.27,3.53,3.27,6.48.26,7.06-1.53-.68,7.45-10.77,8.6-10.24,18.1.42,7.61,7.26,10.65,10.63,11.21-2.53-1.85-5.56-5.95-5.56-12.22,0-4.65,2.3-6.01,4.44-7.95,1.29-1.16,3.66-3.56,4.62-6.03,1.38-3.56,0-8.83-5.62-10.45-5.62-1.62-8.71,2.41-9.39,3.89-.54,1.18-2.3,3.54-3.18,4.53Z"/>
    <path class="cls-4" d="M6.02,32.55c.35-.42,1.19-.84,1.56-1,0-.57.2-1.26.29-1.53,2.03-1.48,3.85-2.05,4.5-2.15,5.51,2.9,7.42-1.21,7.68-3.62-2.1,4.38-5.6,2.98-7.09,1.74-3.6.68-5.9,3.07-6.59,4.18-.64-.75-.64-3.34-.56-4.53.78-.8,2.5-2.81,3.21-4.39.71-1.58,1.55-2.31,1.88-2.47,1.45-1.31,5.43-3.21,9.71-.29,4.29,2.92,3.79,7.6,3.06,9.57.78-1.01,1.3-3.65,1.41-4.83.4-7.04-5.56-9.06-9.83-8.89-5.2.21-8.33,5.07-9.24,7.48-2.17,1.72-3.87,3.7-4.44,4.47-.35,2.31.38,4.47.79,5.27,1.18,0,2.92.67,3.65,1Z"/>
    <path class="cls-3" d="M3.43,28.14c.54-.08,1.52-.58,1.12-1.97-.53-.02-1.5.35-1.12,1.97Z"/>
    <path class="cls-16" d="M12.94,20.66c-1.32.57-2.87,1.92-3.47,2.53,1.3-4.19,4.35-5.26,5.71-5.27-.2.68-.92,2.17-2.24,2.74Z"/>
    <path class="cls-16" d="M12.94,20.66c-1.32.57-2.87,1.92-3.47,2.53,1.3-4.19,4.35-5.26,5.71-5.27-.2.68-.92,2.17-2.24,2.74Z"/>
    <path class="cls-18" d="M50.48,38.63V15.18h7.92c2.02,0,3.82.33,5.38.99,1.58.64,2.92,1.52,4.01,2.63,1.09,1.09,1.92,2.35,2.48,3.75.56,1.41.84,2.86.84,4.35s-.28,2.94-.84,4.35c-.56,1.41-1.39,2.67-2.48,3.78-1.09,1.09-2.43,1.97-4.01,2.63-1.57.64-3.36.96-5.38.96h-7.92ZM54.28,35.19h3.75c1.58,0,2.94-.23,4.06-.7,1.14-.49,2.09-1.13,2.82-1.93.74-.8,1.28-1.69,1.64-2.66.35-.99.53-1.99.53-3s-.18-2-.53-2.97c-.35-.99-.9-1.88-1.64-2.68-.74-.8-1.68-1.43-2.82-1.9-1.13-.49-2.48-.73-4.06-.73h-3.75v16.57ZM75.57,38.63V15.18h12.19v3.36h-8.39v4.3h6.55v3.28h-6.55v9.07h8.39v3.44h-12.19ZM102.48,39.1c-1.73,0-3.34-.31-4.86-.94-1.51-.64-2.84-1.52-3.99-2.63-1.14-1.11-2.04-2.41-2.69-3.88-.63-1.48-.95-3.06-.95-4.74s.32-3.27.95-4.74c.65-1.48,1.55-2.77,2.69-3.88,1.14-1.11,2.47-1.98,3.99-2.61,1.51-.64,3.13-.96,4.86-.96,1.62,0,3.14.28,4.57.83,1.44.56,2.72,1.34,3.83,2.35l-1.11,4.53c-.72-1.18-1.72-2.15-2.98-2.89-1.25-.76-2.66-1.15-4.22-1.15s-3.02.38-4.3,1.15c-1.27.76-2.28,1.79-3.03,3.08-.74,1.29-1.11,2.72-1.11,4.3s.37,3,1.11,4.3c.76,1.29,1.77,2.31,3.03,3.07,1.28.76,2.72,1.15,4.3,1.15s2.97-.38,4.22-1.15c1.27-.76,2.26-1.73,2.98-2.89l1.11,4.53c-1.11.99-2.38,1.77-3.83,2.35-1.43.56-2.95.83-4.57.83ZM112.24,38.63l10.27-24.26h.05l10.27,24.26h-3.99l-2.27-5.55h-8.21l-2.3,5.55h-3.83ZM119.65,29.95h5.6l-1.42-3.52c-.26-.61-.51-1.21-.74-1.8-.21-.59-.42-1.29-.63-2.08-.21.8-.42,1.49-.63,2.08-.21.57-.45,1.17-.71,1.8l-1.45,3.52ZM141.77,39.05c-1.43,0-2.75-.27-3.99-.81-1.21-.54-2.18-1.2-2.9-1.98l1.08-4.4c.56,1.01,1.37,1.88,2.43,2.63,1.06.75,2.23,1.12,3.51,1.12,1.09,0,1.98-.32,2.67-.96.69-.66,1.03-1.46,1.03-2.4,0-.73-.18-1.33-.53-1.8-.33-.47-.73-.84-1.19-1.12-.46-.3-.84-.51-1.13-.65l-2.85-1.41c-.63-.33-1.3-.74-2.01-1.22-.7-.49-1.3-1.12-1.8-1.9-.49-.8-.74-1.81-.74-3.02s.29-2.35.87-3.31c.58-.96,1.4-1.7,2.45-2.24,1.06-.54,2.28-.81,3.67-.81s2.53.23,3.56.68c1.04.43,1.87.89,2.48,1.38l-1.05,4.35c-.56-.82-1.31-1.52-2.24-2.11-.91-.61-1.89-.91-2.93-.91-.95,0-1.7.27-2.24.81-.54.52-.82,1.16-.82,1.93,0,.54.12,1,.37,1.38.26.38.58.7.95.96.39.24.76.46,1.13.65l2.9,1.43c.4.19.88.46,1.43.81.56.33,1.11.76,1.64,1.28.53.52.96,1.16,1.29,1.9.35.75.53,1.64.53,2.68,0,1.36-.32,2.57-.98,3.65-.63,1.06-1.51,1.89-2.64,2.5-1.13.61-2.45.91-3.96.91ZM159.56,39.44l-9.48-24.26h4.04l4.7,12.04c.19.47.37.95.53,1.43.16.47.33,1.04.5,1.72.19-.68.38-1.25.55-1.72.18-.49.35-.96.53-1.43l4.99-12.82,4.99,12.82c.18.45.36.92.55,1.41.19.47.38,1.05.55,1.75.19-.69.37-1.28.53-1.75.18-.49.35-.96.53-1.41l4.65-12.04h3.83l-9.45,24.26-5.2-13.39c-.18-.45-.35-.91-.53-1.38-.18-.49-.35-1.08-.53-1.77-.19.69-.38,1.28-.56,1.75-.18.47-.35.94-.53,1.41l-5.2,13.39ZM179.79,38.63l10.27-24.26h.05l10.27,24.26h-3.99l-2.27-5.55h-8.21l-2.3,5.55h-3.83ZM187.21,29.95h5.6l-1.43-3.52c-.26-.61-.51-1.21-.74-1.8-.21-.59-.42-1.29-.63-2.08-.21.8-.42,1.49-.63,2.08-.21.57-.45,1.17-.71,1.8l-1.45,3.52ZM203.71,38.63V15.18h6.55c1.6,0,2.96.24,4.07.73,1.13.47,2.03,1.09,2.72,1.88.69.76,1.19,1.61,1.5,2.53.32.9.48,1.79.48,2.66s-.16,1.75-.48,2.66c-.3.9-.79,1.75-1.48,2.53-.69.78-1.59,1.42-2.72,1.9-1.11.47-2.47.7-4.09.7h-2.74v7.87h-3.8ZM207.51,27.37h2.53c1.27,0,2.27-.22,3.01-.65.74-.45,1.27-1.01,1.58-1.67.34-.68.5-1.37.5-2.08s-.16-1.36-.47-2.03c-.3-.69-.83-1.27-1.58-1.72-.74-.45-1.75-.68-3.04-.68h-2.53v8.83Z"/>
  </g>
</svg>